M48
;GenerationSoftware,Autodesk,EAGLE,9.6.2*%
;CreationDate,2022-08-30T01:32:41Z*%
FMAT,2
ICI,OFF
METRIC,TZ,000.000
T6C0.350
T5C0.660
T4C0.700
T3C0.813
T2C0.990
T1C1.016
%
G90
M71
T1
X21880Y7580
X19340Y7580
X16800Y7580
X14260Y7580
X11720Y7580
X9180Y7580
X77760Y21470
X75220Y21470
X72680Y21470
X70140Y21470
X67600Y21470
X65060Y21470
X62520Y21470
X59980Y21470
X60770Y94980
X60770Y92440
X58230Y94980
X58230Y92440
X55690Y94980
X55690Y92440
X53150Y94980
X63310Y94980
X53150Y92440
X50610Y94980
X50610Y92440
X48070Y94980
X48070Y92440
X45530Y94980
X45530Y92440
X42990Y94980
X42990Y92440
X40450Y94980
X40450Y92440
X37910Y94980
X37910Y92440
X35370Y94980
X35370Y92440
X9180Y21470
X57440Y21470
X54900Y21470
X52360Y21470
X49820Y21470
X47280Y21470
X44740Y21470
X42200Y21470
X39660Y21470
X37120Y21470
X34580Y21470
X32040Y21470
X29500Y21470
X26960Y21470
X11720Y21470
X24420Y21470
X21880Y21470
X19340Y21470
X16800Y21470
X14260Y21470
X75220Y7580
X72680Y7580
X70140Y7580
X67600Y7580
X65060Y7580
X62520Y7580
X59980Y7580
X57440Y7580
X34980Y66090
X54900Y7580
X52360Y7580
X49820Y7580
X47280Y7580
X44740Y7580
X42200Y7580
X39660Y7580
X37120Y7580
X34580Y7580
X32040Y7580
X29500Y7580
X26960Y7580
X24420Y7580
X52760Y66090
X50220Y66090
X47680Y66090
X45140Y66090
X42600Y66090
X40060Y66090
X37520Y66090
X77760Y7580
X32440Y66090
X29900Y66090
X27360Y66090
X24820Y66090
X22280Y66090
X19740Y66090
X17200Y66090
X14660Y66090
X30450Y94950
X27910Y94950
X25370Y94950
X22830Y94950
X20290Y94950
X17750Y94950
X15210Y94950
X12670Y94950
X68390Y94980
X68390Y92440
X65850Y94980
X65850Y92440
X63310Y92440
T2
X97220Y21630
X97220Y17130
X90720Y21630
X90720Y17130
X127380Y29630
X127380Y25130
X120880Y29630
X117540Y29630
X117540Y25130
X111040Y29630
X111040Y25130
X107700Y29630
X107700Y25130
X101200Y29630
X101200Y25130
X96860Y29630
X96860Y25130
X90360Y29630
X90360Y25130
X127020Y37630
X127020Y33130
X120520Y37630
X120520Y33130
X117180Y37630
X117180Y33130
X110680Y37630
X110680Y33130
X107090Y37740
X107090Y33240
X100590Y37740
X100590Y33240
X97700Y12520
X97700Y8020
X91200Y12520
X91200Y8020
X107860Y8020
X101360Y12520
X101360Y8020
X118020Y12520
X118020Y8020
X111520Y12520
X111520Y8020
X128180Y12520
X128180Y8020
X121680Y12520
X121680Y8020
X127740Y21630
X127740Y17130
X121240Y21630
X117900Y21630
X117900Y17130
X111400Y21630
X111400Y17130
X108060Y21630
X108060Y17130
X101560Y21630
X101560Y17130
X96250Y37740
X96250Y33240
X89750Y37740
X89750Y33240
X107860Y12520
X120880Y25130
X121240Y17130
T3
X96240Y69855
X94970Y67950
X106410Y68300
X105140Y70205
X103870Y68300
X114710Y68300
X113440Y70205
X112170Y68300
X122010Y68300
X120740Y70205
X119470Y68300
X30670Y83530
X33210Y80990
X33210Y83530
X72510Y95130
X72510Y92590
X72510Y90050
X72510Y87510
X72510Y84970
X72510Y82430
X72510Y79890
X72510Y77350
X72510Y74810
X80130Y74810
X80130Y77350
X80130Y79890
X80130Y82430
X80130Y84970
X80130Y87510
X80130Y90050
X80130Y92590
X80130Y95130
X126420Y82220
X126310Y47300
X128850Y47300
X121150Y47300
X123690Y47300
X115990Y47300
X118530Y47300
X110830Y47300
X113370Y47300
X105670Y47300
X108210Y47300
X100510Y47300
X103050Y47300
X95410Y47380
X97950Y47380
X90250Y47380
X92790Y47380
X83750Y90440
X83750Y96060
X101500Y82330
X101500Y87950
X83880Y74330
X83880Y79950
X88260Y74330
X88260Y79950
X92640Y74330
X92640Y79950
X97020Y74330
X97020Y79950
X101400Y74330
X101400Y79950
X111320Y91870
X105700Y91870
X118760Y92220
X113140Y92220
X126140Y92220
X120520Y92220
X111520Y87220
X105900Y87220
X88130Y90440
X88130Y96060
X118900Y87220
X113280Y87220
X126280Y87220
X120660Y87220
X111660Y82220
X106040Y82220
X119040Y82220
X113420Y82220
X120800Y82220
X118800Y76220
X113180Y76220
X92510Y90440
X92510Y96060
X97220Y90330
X97220Y95950
X101600Y90330
X101600Y95950
X83980Y82330
X83980Y87950
X88360Y82330
X88360Y87950
X92740Y82330
X92740Y87950
X97120Y82330
X97120Y87950
X97510Y67950
T4
X118280Y63150
X118280Y52990
X115740Y52990
X113200Y52990
X110660Y52990
X100500Y63150
X103040Y63150
X105580Y63150
X108120Y63150
X110660Y63150
X113200Y63150
X115740Y63150
X108120Y52990
X105580Y52990
X103040Y52990
X100500Y52990
T5
X7450Y75260
X9990Y77800
X12530Y75260
X15560Y75260
X18100Y77800
X20640Y75260
T6
X75590Y75438
X45415Y9144
X52883Y19964
X112776Y51816
X44501Y81991
X91897Y71476
X50444Y23012
X71171Y92050
X51054Y90983
X12954Y85344
X110338Y71018
X46634Y13716
X46330Y17374
X53035Y43129
X118872Y29261
X93878Y37643
X20117Y6096
X78791Y5182
X14326Y5486
X108204Y44196
X96012Y93878
X109271Y93726
X12649Y4115
X107899Y45110
X105613Y46025
X111252Y57607
X88697Y43434
X94640Y51511
X97536Y54407
X107442Y56998
X112471Y57455
X117043Y86258
X57760Y23927
X63551Y29718
X74371Y51816
X74371Y59741
X117196Y83972
X116281Y58674
X113690Y58674
X110338Y73914
X106985Y77267
X82906Y13259
X101194Y20269
X122682Y91135
X115214Y94945
X30480Y63246
X76657Y97841
X56845Y13411
X103327Y43282
X87478Y43586
X74676Y79248
X93421Y84125
X127711Y79553
X110338Y45415
X110033Y49530
X108814Y50749
X50292Y83515
X56845Y76962
X51664Y9144
X46330Y41453
X76962Y58674
X56236Y11735
X94031Y43129
X93116Y68885
X94031Y47549
X96317Y76352
X102870Y90983
X105613Y75743
X74371Y77876
X78181Y76810
X83668Y60503
X74219Y80772
X75590Y54407
X77267Y76810
X77267Y70409
X74676Y67818
X75133Y53035
X65532Y43434
X59284Y43434
X54254Y19964
X52578Y17526
X45415Y15545
X45720Y13564
X34595Y96926
X52730Y80162
X48311Y68123
X35662Y44501
X35204Y22860
X37643Y19964
X34442Y96012
X35204Y15240
X17831Y68275
X13411Y77724
X13259Y93421
X49682Y44501
X74524Y72847
X75286Y80620
X72542Y72238
X49987Y63703
X48311Y63703
X46634Y42672
X107899Y46025
X34442Y82906
X86868Y78029
X81991Y76810
X108204Y43282
X75286Y35204
X75286Y44501
X54254Y65532
X49987Y68732
X47549Y68732
X31852Y63703
X28042Y22403
X104394Y45872
X106832Y54864
X108661Y70409
M30