G04 EAGLE Gerber RS-274X export*
G75*
%MOMM*%
%FSLAX34Y34*%
%LPD*%
%INBottom Copper*%
%IPPOS*%
%AMOC8*
5,1,8,0,0,1.08239X$1,22.5*%
G01*
%ADD10R,1.270000X1.270000*%
%ADD11C,1.270000*%
%ADD12R,1.524000X1.524000*%
%ADD13C,1.524000*%
%ADD14R,1.778000X1.778000*%
%ADD15C,1.778000*%
%ADD16P,1.814519X8X22.500000*%
%ADD17P,1.924489X8X112.500000*%
%ADD18R,1.879600X1.879600*%
%ADD19C,1.879600*%
%ADD20P,1.429621X8X22.500000*%
%ADD21P,1.429621X8X112.500000*%
%ADD22P,1.429621X8X202.500000*%
%ADD23C,1.168000*%
%ADD24C,1.498000*%
%ADD25R,1.498000X1.498000*%
%ADD26C,0.152400*%
%ADD27C,0.756400*%


D10*
X1005000Y529900D03*
D11*
X1030400Y529900D03*
X1055800Y529900D03*
X1081200Y529900D03*
X1106600Y529900D03*
X1132000Y529900D03*
X1157400Y529900D03*
X1182800Y529900D03*
X1182800Y631500D03*
X1157400Y631500D03*
X1132000Y631500D03*
X1106600Y631500D03*
X1081200Y631500D03*
X1055800Y631500D03*
X1030400Y631500D03*
X1005000Y631500D03*
D12*
X725100Y951300D03*
D13*
X725100Y925900D03*
X725100Y900500D03*
X725100Y875100D03*
X725100Y849700D03*
X725100Y824300D03*
X725100Y798900D03*
X725100Y773500D03*
X725100Y748100D03*
X801300Y748100D03*
X801300Y773500D03*
X801300Y798900D03*
X801300Y824300D03*
X801300Y849700D03*
X801300Y875100D03*
X801300Y900500D03*
X801300Y925900D03*
X801300Y951300D03*
D14*
X777600Y75800D03*
D15*
X752200Y75800D03*
X726800Y75800D03*
X701400Y75800D03*
X676000Y75800D03*
X650600Y75800D03*
X625200Y75800D03*
X599800Y75800D03*
X574400Y75800D03*
X549000Y75800D03*
X523600Y75800D03*
X498200Y75800D03*
X472800Y75800D03*
X447400Y75800D03*
X422000Y75800D03*
X396600Y75800D03*
X371200Y75800D03*
X345800Y75800D03*
X320400Y75800D03*
X295000Y75800D03*
X269600Y75800D03*
X244200Y75800D03*
X218800Y75800D03*
X193400Y75800D03*
X168000Y75800D03*
X142600Y75800D03*
X117200Y75800D03*
X91800Y75800D03*
D14*
X777600Y214700D03*
D15*
X752200Y214700D03*
X726800Y214700D03*
X701400Y214700D03*
X676000Y214700D03*
X650600Y214700D03*
X625200Y214700D03*
X599800Y214700D03*
X574400Y214700D03*
X549000Y214700D03*
X523600Y214700D03*
X498200Y214700D03*
X472800Y214700D03*
X447400Y214700D03*
X422000Y214700D03*
X396600Y214700D03*
X371200Y214700D03*
X345800Y214700D03*
X320400Y214700D03*
X295000Y214700D03*
X269600Y214700D03*
X244200Y214700D03*
X218800Y214700D03*
X193400Y214700D03*
X168000Y214700D03*
X142600Y214700D03*
X117200Y214700D03*
X91800Y214700D03*
D16*
X353700Y924400D03*
X353700Y949800D03*
X379100Y924400D03*
X379100Y949800D03*
X404500Y924400D03*
X404500Y949800D03*
X429900Y924400D03*
X429900Y949800D03*
X455300Y924400D03*
X455300Y949800D03*
X480700Y924400D03*
X480700Y949800D03*
X506100Y924400D03*
X506100Y949800D03*
X531500Y924400D03*
X531500Y949800D03*
X556900Y924400D03*
X556900Y949800D03*
X582300Y924400D03*
X582300Y949800D03*
X607700Y924400D03*
X607700Y949800D03*
X633100Y924400D03*
X633100Y949800D03*
X658500Y924400D03*
X658500Y949800D03*
X683900Y924400D03*
X683900Y949800D03*
D17*
X126700Y949500D03*
X152100Y949500D03*
X177500Y949500D03*
X202900Y949500D03*
X228300Y949500D03*
X253700Y949500D03*
X279100Y949500D03*
X304500Y949500D03*
D18*
X146600Y660900D03*
D19*
X172000Y660900D03*
X197400Y660900D03*
X222800Y660900D03*
X248200Y660900D03*
X273600Y660900D03*
X299000Y660900D03*
X324400Y660900D03*
X349800Y660900D03*
X375200Y660900D03*
X400600Y660900D03*
X426000Y660900D03*
X451400Y660900D03*
X476800Y660900D03*
X502200Y660900D03*
X527600Y660900D03*
D20*
X1263100Y473000D03*
X1288500Y473000D03*
X1211500Y473000D03*
X1236900Y473000D03*
X1159900Y473000D03*
X1185300Y473000D03*
X1108300Y473000D03*
X1133700Y473000D03*
X1056700Y473000D03*
X1082100Y473000D03*
X1005100Y473000D03*
X1030500Y473000D03*
X954100Y473800D03*
X979500Y473800D03*
X902500Y473800D03*
X927900Y473800D03*
D21*
X837500Y904400D03*
X837500Y960600D03*
X1015000Y823300D03*
X1015000Y879500D03*
X838800Y743300D03*
X838800Y799500D03*
X882600Y743300D03*
X882600Y799500D03*
X926400Y743300D03*
X926400Y799500D03*
X970200Y743300D03*
X970200Y799500D03*
X1014000Y743300D03*
X1014000Y799500D03*
D22*
X1113200Y918700D03*
X1057000Y918700D03*
X1187600Y922200D03*
X1131400Y922200D03*
X1261400Y922200D03*
X1205200Y922200D03*
X1115200Y872200D03*
X1059000Y872200D03*
D21*
X881300Y904400D03*
X881300Y960600D03*
D22*
X1189000Y872200D03*
X1132800Y872200D03*
X1262800Y872200D03*
X1206600Y872200D03*
X1116600Y822200D03*
X1060400Y822200D03*
X1190400Y822200D03*
X1134200Y822200D03*
X1264200Y822200D03*
X1208000Y822200D03*
X1188000Y762200D03*
X1131800Y762200D03*
D23*
X74500Y752600D03*
X99900Y778000D03*
X125300Y752600D03*
X155600Y752600D03*
X181000Y778000D03*
X206400Y752600D03*
D21*
X925100Y904400D03*
X925100Y960600D03*
X972200Y903300D03*
X972200Y959500D03*
X1016000Y903300D03*
X1016000Y959500D03*
X839800Y823300D03*
X839800Y879500D03*
X883600Y823300D03*
X883600Y879500D03*
X927400Y823300D03*
X927400Y879500D03*
X971200Y823300D03*
X971200Y879500D03*
D24*
X897500Y332400D03*
D25*
X897500Y377400D03*
D24*
X962500Y332400D03*
X962500Y377400D03*
X1015600Y171300D03*
D25*
X1015600Y216300D03*
D24*
X1080600Y171300D03*
X1080600Y216300D03*
X1114000Y171300D03*
D25*
X1114000Y216300D03*
D24*
X1179000Y171300D03*
X1179000Y216300D03*
X1212400Y171300D03*
D25*
X1212400Y216300D03*
D24*
X1277400Y171300D03*
X1277400Y216300D03*
X1216800Y80200D03*
D25*
X1216800Y125200D03*
D24*
X1281800Y80200D03*
X1281800Y125200D03*
X1115200Y80200D03*
D25*
X1115200Y125200D03*
D24*
X1180200Y80200D03*
X1180200Y125200D03*
X1013600Y80200D03*
D25*
X1013600Y125200D03*
D24*
X1078600Y80200D03*
X1078600Y125200D03*
X912000Y80200D03*
D25*
X912000Y125200D03*
D24*
X977000Y80200D03*
X977000Y125200D03*
X1005900Y332400D03*
D25*
X1005900Y377400D03*
D24*
X1070900Y332400D03*
X1070900Y377400D03*
X1106800Y331300D03*
D25*
X1106800Y376300D03*
D24*
X1171800Y331300D03*
X1171800Y376300D03*
X1205200Y331300D03*
D25*
X1205200Y376300D03*
D24*
X1270200Y331300D03*
X1270200Y376300D03*
X903600Y251300D03*
D25*
X903600Y296300D03*
D24*
X968600Y251300D03*
X968600Y296300D03*
X1012000Y251300D03*
D25*
X1012000Y296300D03*
D24*
X1077000Y251300D03*
X1077000Y296300D03*
X1110400Y251300D03*
D25*
X1110400Y296300D03*
D24*
X1175400Y251300D03*
X1175400Y296300D03*
X1208800Y251300D03*
D25*
X1208800Y296300D03*
D24*
X1273800Y251300D03*
X1273800Y296300D03*
X907200Y171300D03*
D25*
X907200Y216300D03*
D24*
X972200Y171300D03*
X972200Y216300D03*
D20*
X975100Y679500D03*
X962400Y698550D03*
X949700Y679500D03*
X1064100Y683000D03*
X1051400Y702050D03*
X1038700Y683000D03*
X1147100Y683000D03*
X1134400Y702050D03*
X1121700Y683000D03*
X1220100Y683000D03*
X1207400Y702050D03*
X1194700Y683000D03*
X306700Y835300D03*
X332100Y809900D03*
X332100Y835300D03*
D26*
X823164Y862864D02*
X839800Y879500D01*
X1017800Y485700D02*
X1030500Y473000D01*
X1017800Y485700D02*
X1017800Y500921D01*
X1007835Y501577D02*
X1002365Y501577D01*
X1007835Y501577D02*
X1011350Y501436D01*
X1017800Y500921D01*
X998650Y501420D02*
X993133Y500954D01*
X998650Y501420D02*
X1002365Y501577D01*
X915200Y569787D02*
X908863Y580387D01*
X979500Y506314D02*
X980825Y505725D01*
X982235Y505099D01*
X993133Y500954D01*
X908863Y580387D02*
X902500Y581805D01*
X966800Y512582D02*
X976765Y507528D01*
X979500Y506314D01*
X927900Y553210D02*
X915200Y569787D01*
X927900Y553210D02*
X941000Y537121D01*
X942029Y536250D02*
X948954Y529900D01*
X942029Y536250D02*
X941000Y537121D01*
X951365Y527689D02*
X954100Y524954D01*
X951365Y527689D02*
X948954Y529900D01*
X954100Y524954D02*
X966800Y512582D01*
X902500Y581805D02*
X861886Y591686D01*
X829220Y598933D01*
X802799Y592366D01*
X801300Y591794D01*
X789184Y587116D01*
X763200Y577465D01*
X823232Y862400D02*
X823164Y862864D01*
X763200Y862400D02*
X763200Y577465D01*
X763200Y862400D02*
X823232Y862400D01*
X1269923Y685578D02*
X1269923Y680422D01*
X1233176Y764791D02*
X1233176Y885164D01*
X1253126Y744841D02*
X1253126Y744841D01*
X1233176Y885164D02*
X1225226Y893114D01*
X1225899Y897339D02*
X1201043Y896641D01*
X1225226Y893114D02*
X1225899Y897339D01*
X1200830Y536760D02*
X1199580Y536760D01*
X1201043Y896641D02*
X1169321Y896641D01*
X1167010Y896571D02*
X1166940Y896500D01*
X1142878Y896500D01*
X1140421Y898958D01*
X1131750Y898724D02*
X1129120Y898677D01*
X1132100Y898724D02*
X1136587Y898840D01*
X1127995Y898653D02*
X1124261Y899296D01*
X1123535Y898988D02*
X1119808Y898706D01*
X1113700Y898498D02*
X1111765Y898467D01*
X1113700Y898498D02*
X1115855Y898498D01*
X1104958Y898148D02*
X1090943Y897499D01*
X1089944Y897498D02*
X1088449Y897490D01*
X1083676Y899505D02*
X1081249Y899497D01*
X1087986Y897485D02*
X1088281Y897579D01*
X1087781Y898091D02*
X1084138Y899511D01*
X1080249Y899496D02*
X1066916Y898839D01*
X1057500Y898498D02*
X1055565Y898467D01*
X1058000Y898498D02*
X1060301Y898527D01*
X1048286Y898084D02*
X1041584Y897629D01*
X948100Y937600D02*
X925100Y960600D01*
X1198400Y486100D02*
X1185300Y473000D01*
X1269923Y685578D02*
X1267986Y704285D01*
X1262163Y723027D01*
X1253126Y744841D01*
X1262163Y642973D02*
X1261650Y641734D01*
X1262163Y642973D02*
X1267986Y661715D01*
X1269923Y680422D01*
X1261650Y641734D02*
X1254681Y641734D01*
X1230326Y617379D01*
X1230326Y570780D01*
X1253126Y744841D02*
X1233176Y764791D01*
X1230326Y570780D02*
X1199580Y540034D01*
X1199580Y536760D01*
X1200830Y536760D02*
X1198400Y535617D01*
X1198400Y486100D01*
X1169321Y896641D02*
X1167010Y896571D01*
X1132100Y898724D02*
X1131750Y898724D01*
X1136587Y898840D02*
X1140421Y898958D01*
X1129120Y898677D02*
X1127995Y898653D01*
X1124261Y899296D02*
X1123535Y898988D01*
X1119808Y898706D02*
X1115855Y898498D01*
X1110350Y898436D02*
X1104958Y898148D01*
X1110350Y898436D02*
X1111765Y898467D01*
X1088449Y897490D02*
X1087986Y897485D01*
X1089944Y897498D02*
X1090943Y897499D01*
X1088281Y897579D02*
X1087781Y898091D01*
X1084138Y899511D02*
X1083676Y899505D01*
X1081249Y899497D02*
X1080249Y899496D01*
X1058000Y898498D02*
X1057500Y898498D01*
X1060301Y898527D02*
X1061621Y898556D01*
X1066916Y898839D01*
X1054140Y898436D02*
X1048286Y898084D01*
X1054140Y898436D02*
X1055565Y898467D01*
X1040017Y901717D02*
X1039362Y903300D01*
X1040017Y901717D02*
X1040495Y900565D01*
X1041584Y897629D01*
X1033638Y918700D02*
X1032983Y920283D01*
X1032505Y921435D01*
X1028836Y931400D01*
X1033638Y918700D02*
X1034726Y915965D01*
X1038274Y906035D01*
X1039362Y903300D01*
X1028836Y931400D02*
X949209Y931400D01*
X948091Y932500D01*
X948100Y935400D02*
X948100Y937600D01*
X948100Y935400D02*
X948091Y932500D01*
X1272971Y685735D02*
X1272971Y680265D01*
X1264466Y640568D02*
X1263333Y637833D01*
X1249463Y562698D02*
X1254250Y540641D01*
X1258213Y751929D02*
X1255439Y759694D01*
X1258175Y751287D02*
X1257104Y749555D01*
X1250485Y598230D02*
X1249419Y562888D01*
X1253600Y761918D02*
X1240730Y778582D01*
X1262058Y635065D02*
X1251071Y600665D01*
X1239692Y525835D02*
X1236900Y515162D01*
X1240328Y526472D02*
X1242436Y528546D01*
X1264871Y724455D02*
X1259415Y742351D01*
X1236224Y783088D02*
X1236224Y896826D01*
X1236224Y783088D02*
X1240730Y778582D01*
X1253348Y539428D02*
X1243316Y529390D01*
X1230200Y900948D02*
X1211127Y900388D01*
X1230200Y900948D02*
X1232800Y900948D01*
X1236224Y896826D01*
X1205550Y900248D02*
X1201416Y900145D01*
X1205900Y900248D02*
X1208817Y900317D01*
X1199566Y900094D02*
X1197953Y900126D01*
X1197603Y900228D02*
X1193265Y900348D01*
X1187950Y900248D02*
X1169227Y899688D01*
X1187950Y900248D02*
X1190284Y900248D01*
X1166917Y899617D02*
X1165018Y899617D01*
X1162148Y899562D01*
X1140795Y902472D02*
X1140327Y902004D01*
X1140795Y902472D02*
X1159239Y902472D01*
X1136494Y901887D02*
X1136144Y901887D01*
X1129056Y901724D01*
X1059346Y957699D02*
X1052357Y962415D01*
X1034814Y973905D02*
X1032078Y975038D01*
X1018267Y978099D02*
X1013733Y978099D01*
X999922Y975038D02*
X997878Y974191D01*
X990322Y974191D02*
X988278Y975038D01*
X974467Y978099D02*
X969933Y978099D01*
X956122Y975038D02*
X952825Y973664D01*
X943348Y974573D02*
X940723Y975682D01*
X927367Y978649D02*
X922833Y978649D01*
X909478Y975682D02*
X906533Y974461D01*
X887094Y966394D02*
X881300Y960600D01*
X1236900Y515162D02*
X1236900Y473000D01*
X1258175Y751287D02*
X1258213Y751929D01*
X1257593Y748375D02*
X1259415Y742351D01*
X1257593Y748375D02*
X1257104Y749555D01*
X1270986Y704900D02*
X1272971Y685735D01*
X1270986Y704900D02*
X1265033Y724064D01*
X1264871Y724455D01*
X1265033Y641936D02*
X1264466Y640568D01*
X1265033Y641936D02*
X1270986Y661100D01*
X1272971Y680265D01*
X1262767Y636465D02*
X1262058Y635065D01*
X1262767Y636465D02*
X1263333Y637833D01*
X1250929Y599724D02*
X1250485Y598230D01*
X1250929Y599724D02*
X1251071Y600665D01*
X1249419Y562888D02*
X1249463Y562698D01*
X1254250Y540641D02*
X1253348Y539428D01*
X1255439Y759694D02*
X1253600Y761918D01*
X1240328Y526472D02*
X1239692Y525835D01*
X1242436Y528546D02*
X1243316Y529390D01*
X1236224Y896826D02*
X1236224Y896826D01*
X1205900Y900248D02*
X1205550Y900248D01*
X1208817Y900317D02*
X1211127Y900388D01*
X1201416Y900145D02*
X1199566Y900094D01*
X1197953Y900126D02*
X1197603Y900228D01*
X1193265Y900348D02*
X1190284Y900248D01*
X1169227Y899688D02*
X1166917Y899617D01*
X1162148Y899562D02*
X1159239Y902472D01*
X1140327Y902004D02*
X1136494Y901887D01*
X1129056Y901724D02*
X1128386Y901710D01*
X1127703Y904197D01*
X1124644Y907256D01*
X1119956Y933644D02*
X1116394Y955990D01*
X1123591Y914391D02*
X1124050Y911719D01*
X1124050Y910981D01*
X1124644Y907256D01*
X1116394Y955990D02*
X1069306Y955990D01*
X1120550Y929181D02*
X1121009Y926509D01*
X1120550Y929181D02*
X1120550Y929919D01*
X1119956Y933644D01*
X1121872Y923503D02*
X1122142Y922200D01*
X1121872Y923503D02*
X1121279Y924935D01*
X1121009Y926509D01*
X1122300Y919465D02*
X1122458Y918700D01*
X1122300Y919465D02*
X1122300Y921435D01*
X1122142Y922200D01*
X1122458Y918700D02*
X1122728Y917397D01*
X1123322Y915965D01*
X1123591Y914391D01*
X1069306Y955990D02*
X1059346Y957699D01*
X1035932Y973442D02*
X1034814Y973905D01*
X1035932Y973442D02*
X1046125Y967729D01*
X1052357Y962415D01*
X1031110Y975439D02*
X1018267Y978099D01*
X1031110Y975439D02*
X1032078Y975038D01*
X997878Y974191D02*
X994100Y972627D01*
X999922Y975038D02*
X1000890Y975439D01*
X1013733Y978099D01*
X994100Y972627D02*
X990322Y974191D01*
X987310Y975439D02*
X974467Y978099D01*
X987310Y975439D02*
X988278Y975038D01*
X957090Y975439D02*
X956122Y975038D01*
X957090Y975439D02*
X969933Y978099D01*
X952825Y973664D02*
X949087Y972098D01*
X943348Y974573D01*
X939754Y976084D02*
X927367Y978649D01*
X939754Y976084D02*
X940723Y975682D01*
X910446Y976084D02*
X909478Y975682D01*
X910446Y976084D02*
X922833Y978649D01*
X906533Y974461D02*
X887094Y966394D01*
X1276019Y685893D02*
X1276019Y680107D01*
X1267282Y639402D02*
X1267282Y629402D01*
X1266149Y626666D01*
X1286055Y510632D02*
X1288500Y501198D01*
X1260876Y748049D02*
X1261038Y748096D01*
X1266149Y626666D02*
X1266149Y536056D01*
X1263390Y533297D01*
X1268563Y527677D02*
X1281643Y514686D01*
X1273987Y705515D02*
X1262415Y743151D01*
X1262332Y743234D01*
X1211034Y903434D02*
X1211596Y903996D01*
X1240000Y903996D01*
X1190233Y903296D02*
X1169696Y903296D01*
X1166824Y903208D02*
X1166824Y924193D01*
X1159500Y926749D01*
X1159500Y954877D02*
X1146961Y958615D01*
X1133863Y960973D02*
X1128834Y960973D01*
X1128448Y960930D02*
X1111714Y960747D01*
X1035980Y976721D02*
X1033244Y977854D01*
X1018579Y981147D02*
X1013421Y981147D01*
X998755Y977854D02*
X996712Y977007D01*
X991488Y977007D02*
X989444Y977854D01*
X992165Y976727D02*
X996035Y976727D01*
X974779Y981147D02*
X969621Y981147D01*
X954955Y977854D02*
X951648Y976475D01*
X950675Y976067D02*
X945873Y976803D01*
X944555Y977372D02*
X941889Y978498D01*
X927679Y981697D02*
X922521Y981697D01*
X908311Y978498D02*
X905364Y977277D01*
X904574Y976949D02*
X901036Y977277D01*
X900246Y977604D02*
X897506Y977090D01*
X883723Y980173D02*
X878877Y980173D01*
X865094Y977090D02*
X862148Y975869D01*
X861358Y975541D02*
X856652Y975869D01*
X855862Y976197D02*
X847619Y970719D01*
X837500Y960600D01*
X1288500Y501198D02*
X1288500Y473000D01*
X1261038Y748096D02*
X1262517Y772867D01*
X1260876Y748049D02*
X1262332Y743234D01*
X1273987Y705515D02*
X1276019Y685893D01*
X1267902Y640898D02*
X1267282Y639402D01*
X1267902Y640898D02*
X1273987Y660485D01*
X1276019Y680107D01*
X1264728Y531959D02*
X1268563Y527677D01*
X1264728Y531959D02*
X1263390Y533297D01*
X1284720Y511967D02*
X1286055Y510632D01*
X1284720Y511967D02*
X1281643Y514686D01*
X1262517Y772867D02*
X1257090Y779905D01*
X1211034Y903434D02*
X1208724Y903364D01*
X1208187Y903900D01*
X1190233Y903296D01*
X1169696Y903296D02*
X1166824Y903208D01*
X1159500Y926749D02*
X1159500Y954877D01*
X1146961Y958615D02*
X1133863Y960973D01*
X1128834Y960973D02*
X1128448Y960930D01*
X1111714Y960747D02*
X1110433Y962028D01*
X1041403Y973869D01*
X1037265Y976189D02*
X1035980Y976721D01*
X1037265Y976189D02*
X1041403Y973869D01*
X1032010Y978365D02*
X1018579Y981147D01*
X1032010Y978365D02*
X1033244Y977854D01*
X996712Y977007D02*
X996035Y976727D01*
X998755Y977854D02*
X999990Y978365D01*
X1013421Y981147D01*
X992165Y976727D02*
X991488Y977007D01*
X988210Y978365D02*
X974779Y981147D01*
X988210Y978365D02*
X989444Y977854D01*
X956190Y978365D02*
X954955Y977854D01*
X956190Y978365D02*
X969621Y981147D01*
X951648Y976475D02*
X950675Y976067D01*
X945873Y976803D02*
X944555Y977372D01*
X940654Y979010D02*
X927679Y981697D01*
X940654Y979010D02*
X941889Y978498D01*
X909546Y979010D02*
X908311Y978498D01*
X909546Y979010D02*
X922521Y981697D01*
X905364Y977277D02*
X904574Y976949D01*
X901036Y977277D02*
X900246Y977604D01*
X896404Y977547D02*
X883723Y980173D01*
X896404Y977547D02*
X897506Y977090D01*
X866196Y977547D02*
X865094Y977090D01*
X866196Y977547D02*
X878877Y980173D01*
X862148Y975869D02*
X861358Y975541D01*
X856652Y975869D02*
X855862Y976197D01*
X1246995Y790000D02*
X1257090Y779905D01*
X1246995Y790000D02*
X1240000Y790000D01*
X1240000Y903996D01*
X1121664Y486156D02*
X1109472Y473964D01*
X1121664Y486156D02*
X1147572Y486156D01*
X1159764Y473964D01*
X1109472Y473964D02*
X1108300Y473000D01*
X1159764Y473964D02*
X1159900Y473000D01*
X1107948Y472440D02*
X1104900Y472440D01*
X1092708Y460248D01*
X1078992Y460248D01*
X1107948Y472440D02*
X1108300Y473000D01*
X1085088Y822960D02*
X1060704Y822960D01*
X1085088Y822960D02*
X1085088Y867156D01*
X1103376Y885444D01*
X1132332Y885444D01*
X1133856Y883920D02*
X1143000Y874776D01*
X1133856Y883920D02*
X1132332Y885444D01*
X1143000Y874776D02*
X1143000Y868680D01*
X1136904Y862584D01*
X1136904Y824484D01*
X1135380Y822960D01*
X1060704Y822960D02*
X1060400Y822200D01*
X1134200Y822200D02*
X1135380Y822960D01*
X1208532Y822960D02*
X1208532Y844296D01*
X1210056Y845820D01*
X1210056Y862584D01*
X1219200Y871728D01*
X1219200Y883920D01*
X1217676Y885444D01*
X1191768Y885444D01*
X1190244Y886968D01*
X1136904Y886968D01*
X1133856Y883920D01*
X1208532Y822960D02*
X1208000Y822200D01*
X344424Y822960D02*
X332232Y810768D01*
X344424Y822960D02*
X344424Y829056D01*
X332232Y810768D02*
X332100Y809900D01*
X1085088Y822960D02*
X1085088Y794004D01*
X1069848Y778764D01*
X1048512Y778764D01*
X1046988Y777240D01*
X871728Y777240D01*
X868680Y780288D01*
X819912Y768096D02*
X800100Y748284D01*
X801300Y748100D01*
X861060Y473964D02*
X902208Y473964D01*
X861060Y473964D02*
X758952Y576072D01*
X758952Y751332D01*
X755904Y754380D01*
X902208Y473964D02*
X902500Y473800D01*
D27*
X1078992Y460248D03*
X344424Y829056D03*
X868680Y780288D03*
X819912Y768096D03*
X755904Y754380D03*
D26*
X454152Y91440D02*
X452628Y91440D01*
X451104Y92964D01*
X451104Y146304D01*
X448056Y149352D01*
X432816Y149352D01*
X431292Y150876D01*
X416052Y150876D01*
X413004Y153924D01*
X413004Y214884D01*
X420624Y214884D01*
X422000Y214700D01*
X667512Y214884D02*
X675132Y214884D01*
X667512Y214884D02*
X652272Y230124D01*
X547116Y230124D01*
X534924Y217932D01*
X534924Y208788D01*
X530352Y204216D01*
X530352Y201168D01*
X528828Y199644D01*
X675132Y214884D02*
X676000Y214700D01*
X1156716Y670560D02*
X1156716Y673608D01*
X1156716Y670560D02*
X1156716Y632460D01*
X1156716Y673608D02*
X1147572Y682752D01*
X1156716Y632460D02*
X1157400Y631500D01*
X1147572Y682752D02*
X1147100Y683000D01*
X1207008Y670560D02*
X1219200Y682752D01*
X1194816Y670560D02*
X1156716Y670560D01*
X1194816Y670560D02*
X1207008Y670560D01*
X1219200Y682752D02*
X1220100Y683000D01*
X975360Y649224D02*
X975360Y647700D01*
X975360Y649224D02*
X975360Y678180D01*
X975360Y647700D02*
X1001268Y621792D01*
X1001268Y579120D01*
X1002792Y577596D01*
X1018032Y577596D01*
X1019556Y576072D01*
X1021080Y577596D01*
X1080516Y577596D01*
X1080516Y530352D01*
X975360Y678180D02*
X975100Y679500D01*
X1080516Y530352D02*
X1081200Y529900D01*
X1194816Y630936D02*
X1194816Y670560D01*
X1194816Y630936D02*
X1187196Y623316D01*
X1187196Y580644D01*
X1184148Y577596D01*
X1144524Y577596D01*
X1144524Y519684D01*
X1143000Y518160D01*
X1127760Y518160D01*
X723900Y748284D02*
X519684Y748284D01*
X518160Y746760D01*
X518160Y661416D01*
X527304Y661416D01*
X723900Y748284D02*
X725100Y748100D01*
X527600Y660900D02*
X527304Y661416D01*
X137160Y752856D02*
X126492Y752856D01*
X137160Y752856D02*
X137160Y707136D01*
X140208Y704088D01*
X156972Y704088D01*
X158496Y702564D01*
X158496Y676656D01*
X147828Y665988D01*
X147828Y661416D01*
X126492Y752856D02*
X125300Y752600D01*
X147828Y661416D02*
X146600Y660900D01*
X246888Y661416D02*
X246888Y665988D01*
X236220Y676656D01*
X167640Y676656D01*
X166116Y678180D01*
X166116Y710184D01*
X164592Y711708D01*
X152400Y711708D01*
X150876Y713232D01*
X146304Y713232D01*
X144780Y714756D01*
X144780Y763524D01*
X146304Y765048D01*
X193548Y765048D01*
X205740Y752856D01*
X246888Y661416D02*
X248200Y660900D01*
X206400Y752600D02*
X205740Y752856D01*
X440436Y819912D02*
X445008Y819912D01*
X440436Y819912D02*
X420624Y839724D01*
X341376Y839724D01*
X333756Y847344D01*
X318516Y847344D01*
X307848Y836676D01*
X306700Y835300D01*
X961644Y649224D02*
X975360Y649224D01*
X961644Y649224D02*
X915924Y694944D01*
X915924Y711708D01*
X918972Y714756D01*
X505968Y230124D02*
X504444Y230124D01*
X505968Y230124D02*
X507492Y231648D01*
X507492Y438912D01*
X510540Y441960D01*
X510540Y635508D01*
X489204Y656844D01*
X489204Y665988D01*
X478536Y676656D01*
X469392Y676656D01*
X467868Y678180D01*
X467868Y797052D01*
X445008Y819912D01*
D27*
X454152Y91440D03*
X528828Y199644D03*
X1127760Y518160D03*
X445008Y819912D03*
X918972Y714756D03*
X504444Y230124D03*
D26*
X881300Y904400D02*
X859400Y926300D01*
X826328Y925900D02*
X801300Y925900D01*
X859400Y926300D02*
X859400Y932500D01*
X830552Y932500D01*
X828147Y929056D02*
X826328Y925900D01*
X828147Y929056D02*
X830552Y932500D01*
X980908Y854448D02*
X993100Y854500D01*
X980908Y854448D02*
X910354Y854448D01*
X893308Y852924D01*
X870844Y852924D01*
X852556Y851400D01*
X1004600Y891900D02*
X1016000Y903300D01*
X830050Y849700D02*
X801300Y849700D01*
X1002600Y891900D02*
X1004600Y891900D01*
X998674Y891958D02*
X994100Y892207D01*
X998674Y891958D02*
X1002600Y891900D01*
X994100Y892207D02*
X993100Y890593D01*
X993100Y854500D01*
X852556Y851400D02*
X831201Y851400D01*
X830050Y849700D01*
X711708Y917448D02*
X711708Y920496D01*
X711708Y917448D02*
X704088Y917448D01*
X696468Y909828D01*
X510540Y909828D01*
X129540Y928116D02*
X129540Y853440D01*
X129540Y928116D02*
X126492Y931164D01*
X126492Y949452D01*
X126700Y949500D01*
X448056Y219456D02*
X448056Y214884D01*
X448056Y219456D02*
X458724Y230124D01*
X467868Y230124D01*
X469392Y231648D01*
X469392Y423672D01*
X466344Y426720D01*
X483108Y637032D02*
X499872Y637032D01*
X725424Y722376D02*
X742188Y739140D01*
X742188Y754380D01*
X755904Y768096D01*
X755904Y803148D01*
X752856Y806196D01*
X448056Y214884D02*
X447400Y214700D01*
D27*
X711708Y920496D03*
X510540Y909828D03*
X129540Y853440D03*
X466344Y426720D03*
X483108Y637032D03*
X499872Y637032D03*
X725424Y722376D03*
X752856Y806196D03*
D26*
X468439Y436053D02*
X472800Y428402D01*
X466264Y436068D02*
X462100Y437543D01*
X376731Y745077D02*
X365987Y741954D01*
X351417Y739448D02*
X340555Y738374D01*
X378731Y745725D02*
X390311Y748185D01*
X333408Y738190D02*
X328296Y738354D01*
X326371Y738412D02*
X315359Y738994D01*
X353235Y739689D02*
X364036Y741401D01*
X301184Y741423D02*
X290494Y744005D01*
X334658Y738142D02*
X338757Y738208D01*
X286476Y745045D02*
X282057Y752018D01*
X303058Y741033D02*
X313573Y739097D01*
X288581Y744481D02*
X286602Y744995D01*
X713978Y937022D02*
X725100Y925900D01*
X152100Y949500D02*
X152100Y859945D01*
X472800Y428402D02*
X472800Y214700D01*
X710168Y936368D02*
X713978Y937022D01*
X710168Y936368D02*
X704510Y936368D01*
X704050Y937100D01*
X468439Y436053D02*
X466264Y436068D01*
X462100Y437543D02*
X460100Y437478D01*
X451400Y437544D01*
X447400Y437546D01*
X438700Y437607D01*
X434700Y437478D01*
X426000Y437544D01*
X422000Y437546D01*
X413300Y437607D01*
X400600Y752782D02*
X413300Y758776D01*
X400600Y752782D02*
X392722Y749278D01*
X390311Y748185D01*
X378731Y745725D02*
X376731Y745077D01*
X365987Y741954D02*
X364036Y741401D01*
X413300Y758776D02*
X413300Y437607D01*
X353235Y739689D02*
X351417Y739448D01*
X340555Y738374D02*
X338757Y738208D01*
X334658Y738142D02*
X333408Y738190D01*
X328296Y738354D02*
X326371Y738412D01*
X315359Y738994D02*
X313573Y739097D01*
X303058Y741033D02*
X301184Y741423D01*
X290494Y744005D02*
X288581Y744481D01*
X286602Y744995D02*
X286476Y745045D01*
X304500Y891257D02*
X305880Y891257D01*
X281796Y752600D02*
X282057Y752018D01*
X329497Y937100D02*
X704050Y937100D01*
X326838Y932369D02*
X325139Y928861D01*
X326838Y932369D02*
X329497Y937100D01*
X325139Y928861D02*
X324660Y927872D01*
X323564Y925228D01*
X321534Y920928D01*
X305880Y891257D01*
X279677Y757477D02*
X281796Y752600D01*
X291800Y890919D02*
X304500Y891257D01*
X271713Y774913D02*
X279677Y757477D01*
X282782Y888984D02*
X291800Y890919D01*
X275418Y887129D02*
X266400Y884521D01*
X275418Y887129D02*
X282782Y888984D01*
X266400Y884521D02*
X260288Y881712D01*
X260353Y788953D02*
X271713Y774913D01*
X253700Y878764D02*
X260288Y881712D01*
X252183Y798383D02*
X260353Y788953D01*
X241000Y872696D02*
X253700Y878764D01*
X241000Y872696D02*
X228300Y864130D01*
X240764Y812364D02*
X252183Y798383D01*
X219870Y858059D02*
X228300Y864130D01*
X232792Y829792D02*
X240764Y812364D01*
X230377Y835300D02*
X219870Y858059D01*
X230377Y835300D02*
X232792Y829792D01*
X219870Y858059D02*
X215600Y859181D01*
X202900Y860971D01*
X190200Y862338D01*
X181000Y862225D01*
X177500Y862209D01*
X164800Y861879D01*
X152100Y859945D01*
X723900Y888492D02*
X723900Y899160D01*
X723900Y888492D02*
X714756Y879348D01*
X714756Y819912D01*
X720852Y813816D01*
X757428Y813816D01*
X758952Y812292D01*
X758952Y760476D01*
X752856Y760476D01*
X745236Y752856D01*
X745236Y728472D01*
X496824Y445008D02*
X489204Y437388D01*
X489204Y214884D01*
X496824Y214884D01*
X723900Y899160D02*
X725100Y900500D01*
X498200Y214700D02*
X496824Y214884D01*
X134112Y934212D02*
X132588Y934212D01*
X134112Y934212D02*
X135636Y932688D01*
X135636Y856488D01*
X137160Y854964D01*
X137160Y780288D01*
X134112Y777240D01*
X178308Y682752D02*
X181356Y679704D01*
X323088Y679704D01*
X336804Y665988D01*
X336804Y655320D01*
X327660Y646176D01*
X327660Y435864D01*
X326136Y434340D01*
X312420Y434340D01*
X310896Y432816D01*
X310896Y227076D01*
X324612Y227076D01*
X333756Y217932D01*
X333756Y210312D01*
X344424Y199644D01*
X353568Y199644D01*
X355092Y198120D01*
X355092Y155448D01*
X352044Y152400D01*
D27*
X745236Y728472D03*
X496824Y445008D03*
X132588Y934212D03*
X134112Y777240D03*
X178308Y682752D03*
X352044Y152400D03*
D26*
X344424Y960120D02*
X338328Y966216D01*
X312420Y966216D01*
X306324Y972312D01*
X300228Y972312D01*
X298704Y970788D01*
X283464Y970788D01*
X281940Y972312D01*
X274320Y972312D01*
X272796Y970788D01*
X252984Y970788D01*
X240792Y958596D01*
X240792Y944880D01*
X233172Y937260D01*
X216408Y937260D01*
X204216Y949452D01*
X202900Y949500D01*
X397764Y140208D02*
X397764Y76200D01*
X397764Y140208D02*
X396240Y141732D01*
X382524Y141732D01*
X379476Y144780D01*
X379476Y196596D01*
X376428Y199644D01*
X352044Y228600D02*
X355092Y231648D01*
X355092Y443484D01*
X356616Y445008D01*
X483108Y681228D02*
X509016Y681228D01*
X510540Y682752D01*
X510540Y794004D01*
X518160Y801624D01*
X527304Y801624D01*
X397764Y76200D02*
X396600Y75800D01*
D27*
X344424Y960120D03*
X376428Y199644D03*
X352044Y228600D03*
X356616Y445008D03*
X483108Y681228D03*
X527304Y801624D03*
D26*
X345948Y969264D02*
X313944Y969264D01*
X307848Y975360D01*
X298704Y975360D01*
X297180Y973836D01*
X284988Y973836D01*
X283464Y975360D01*
X272796Y975360D01*
X271272Y973836D01*
X259080Y973836D01*
X257556Y975360D01*
X252984Y975360D01*
X228600Y950976D01*
X228300Y949500D01*
X454152Y138684D02*
X457200Y135636D01*
X454152Y138684D02*
X454152Y155448D01*
X525780Y175260D02*
X544068Y175260D01*
X545592Y176784D01*
X545592Y196596D01*
X542544Y199644D01*
X592836Y434340D02*
X655320Y434340D01*
X751332Y530352D02*
X751332Y534924D01*
X746760Y539496D01*
X746760Y548640D01*
X749808Y551688D01*
X749808Y675132D01*
X746760Y678180D01*
X772668Y704088D02*
X769620Y707136D01*
X769620Y765048D01*
X772668Y768096D01*
D27*
X345948Y969264D03*
X457200Y135636D03*
X454152Y155448D03*
X525780Y175260D03*
X542544Y199644D03*
X592836Y434340D03*
X655320Y434340D03*
X751332Y530352D03*
X746760Y678180D03*
X772668Y704088D03*
X772668Y768096D03*
D26*
X755904Y682752D02*
X755904Y544068D01*
X755904Y682752D02*
X719328Y719328D01*
X719328Y725424D01*
X722376Y728472D01*
X726948Y728472D01*
X739140Y740664D01*
X739140Y755904D01*
X752856Y769620D01*
X752856Y797052D01*
X742188Y807720D01*
D27*
X755904Y544068D03*
X742188Y807720D03*
D26*
X836676Y687324D02*
X836676Y605028D01*
X836676Y687324D02*
X781812Y742188D01*
X781812Y768096D01*
X743712Y778764D02*
X729996Y778764D01*
X725424Y774192D01*
X725100Y773500D01*
D27*
X836676Y605028D03*
X781812Y768096D03*
X743712Y778764D03*
D26*
X345948Y836676D02*
X332232Y836676D01*
X345948Y836676D02*
X416052Y766572D01*
X416052Y760476D01*
X417576Y758952D01*
X417576Y687324D01*
X438912Y665988D01*
X438912Y656844D01*
X426720Y644652D01*
X419100Y644652D01*
X417576Y643128D01*
X417576Y492252D01*
X477012Y432816D01*
X477012Y227076D01*
X484632Y219456D01*
X484632Y210312D01*
X483108Y208788D01*
X483108Y201168D01*
X484632Y199644D01*
X484632Y146304D01*
X486156Y144780D01*
X505968Y144780D01*
X507492Y143256D01*
X515112Y143256D01*
X522732Y135636D01*
X522732Y76200D01*
X332100Y835300D02*
X332232Y836676D01*
X522732Y76200D02*
X523600Y75800D01*
X949452Y699516D02*
X961644Y699516D01*
X949452Y699516D02*
X906780Y742188D01*
X906780Y754380D01*
X915924Y763524D01*
X954024Y763524D01*
X960120Y757428D01*
X1056132Y757428D01*
X1028700Y918868D02*
X1029180Y919348D01*
X1028700Y918868D02*
X1028700Y909828D01*
X1029180Y919348D02*
X1001048Y919348D01*
X981200Y899500D01*
X981200Y889500D01*
X971200Y879500D01*
X961644Y699516D02*
X962400Y698550D01*
D27*
X1056132Y757428D03*
X1028700Y909828D03*
D26*
X1130808Y702564D02*
X1133856Y702564D01*
X1130808Y702564D02*
X1097280Y736092D01*
X1097280Y740664D01*
X1071372Y766572D01*
X969264Y766572D01*
X961644Y774192D01*
X864108Y774192D01*
X838800Y799500D01*
X1133856Y702564D02*
X1134400Y702050D01*
X963168Y763524D02*
X963168Y765048D01*
X961644Y766572D01*
X914400Y766572D01*
X903732Y755904D01*
X903732Y740664D01*
X931164Y713232D01*
X931164Y688848D01*
X940308Y475488D02*
X940308Y431292D01*
X598932Y80772D02*
X562356Y117348D01*
X598932Y80772D02*
X598932Y76200D01*
X599800Y75800D01*
D27*
X963168Y763524D03*
X931164Y688848D03*
X940308Y475488D03*
X940308Y431292D03*
X562356Y117348D03*
D26*
X995172Y824484D02*
X1014984Y824484D01*
X995172Y824484D02*
X982980Y836676D01*
X960120Y836676D01*
X958596Y835152D01*
X958596Y821436D01*
X970788Y809244D01*
X973836Y809244D01*
X979932Y803148D01*
X979932Y789432D01*
X976884Y786384D01*
X908304Y786384D01*
X902208Y792480D01*
X896112Y792480D01*
X886968Y783336D01*
X879348Y783336D01*
X862584Y800100D01*
X862584Y836676D01*
X851916Y847344D01*
X833628Y847344D01*
X832104Y845820D01*
X812292Y845820D01*
X806196Y839724D01*
X797052Y839724D01*
X787908Y848868D01*
X787908Y858012D01*
X766572Y858012D01*
X766572Y589788D01*
X769620Y586740D01*
X466344Y411480D02*
X463296Y414528D01*
X466344Y411480D02*
X466344Y242316D01*
X454152Y230124D01*
X446532Y230124D01*
X435864Y219456D01*
X435864Y210312D01*
X446532Y199644D01*
X480060Y199644D01*
X481584Y198120D01*
X481584Y144780D01*
X484632Y141732D01*
X504444Y141732D01*
X505968Y140208D01*
X513588Y140208D01*
X519684Y134112D01*
X519684Y94488D01*
X516636Y91440D01*
X1015000Y823300D02*
X1014984Y824484D01*
D27*
X769620Y586740D03*
X463296Y414528D03*
X516636Y91440D03*
D26*
X568452Y769620D02*
X502920Y835152D01*
D27*
X568452Y769620D03*
X502920Y835152D03*
D26*
X1021080Y641604D02*
X1030224Y632460D01*
X1021080Y641604D02*
X1021080Y669036D01*
X1013460Y676656D01*
X1013460Y742188D01*
X1030224Y632460D02*
X1030400Y631500D01*
X1013460Y742188D02*
X1014000Y743300D01*
X1088136Y507492D02*
X1100328Y495300D01*
X1103376Y454152D02*
X1161288Y396240D01*
X1226820Y396240D01*
X1301496Y470916D01*
X1301496Y775716D01*
X1281684Y795528D01*
X1277112Y795528D01*
D27*
X1088136Y507492D03*
X1100328Y495300D03*
X1103376Y454152D03*
X1277112Y795528D03*
D26*
X1005840Y630936D02*
X1005840Y585216D01*
X1008888Y582168D01*
X1106424Y582168D01*
X1118616Y594360D01*
X1118616Y638556D01*
X1133856Y653796D01*
X1133856Y687324D01*
X1141476Y694944D01*
X1143000Y694944D01*
X1146048Y697992D01*
X1155192Y697992D01*
X1170432Y713232D01*
X1170432Y722376D01*
X1159764Y733044D01*
X1159764Y792480D01*
X1161288Y794004D01*
X1161288Y838200D01*
X1162812Y839724D01*
X1162812Y845820D01*
X1188720Y871728D01*
X1005840Y630936D02*
X1005000Y631500D01*
X1188720Y871728D02*
X1189000Y872200D01*
X969264Y800100D02*
X958596Y810768D01*
X958596Y816864D01*
X934212Y841248D01*
X749808Y789432D02*
X746760Y792480D01*
X749808Y789432D02*
X749808Y771144D01*
X736092Y757428D01*
X736092Y742188D01*
X725424Y731520D01*
X720852Y731520D01*
X716280Y726948D01*
X716280Y717804D01*
X752856Y681228D01*
X752856Y550164D01*
X749808Y547116D01*
X749808Y541020D01*
X754380Y536448D01*
X794004Y536448D01*
X874776Y455676D01*
X874776Y435864D01*
X970200Y799500D02*
X969264Y800100D01*
D27*
X934212Y841248D03*
X746760Y792480D03*
X874776Y435864D03*
D26*
X995172Y780288D02*
X1013460Y798576D01*
X995172Y780288D02*
X877824Y780288D01*
X854964Y803148D01*
X848868Y803148D01*
X842772Y809244D01*
X835152Y809244D01*
X826008Y800100D01*
X826008Y787908D01*
X847344Y766572D01*
X896112Y766572D01*
X900684Y762000D01*
X900684Y739140D01*
X912876Y726948D01*
X912876Y693420D01*
X935736Y670560D01*
X935736Y573024D01*
X1002792Y505968D01*
X1018032Y505968D01*
X1021080Y502920D01*
X1021080Y487680D01*
X1022604Y486156D01*
X1030224Y486156D01*
X1040892Y475488D01*
X1040892Y469392D01*
X1033272Y461772D01*
X1033272Y432816D01*
X571500Y137160D02*
X568452Y134112D01*
X571500Y137160D02*
X618744Y137160D01*
X675132Y80772D01*
X675132Y76200D01*
X1013460Y798576D02*
X1014000Y799500D01*
X676000Y75800D02*
X675132Y76200D01*
D27*
X1033272Y432816D03*
X568452Y134112D03*
D26*
X766572Y978408D02*
X757428Y987552D01*
X173736Y987552D01*
X140208Y954024D01*
X140208Y944880D01*
X147828Y937260D01*
X147828Y771144D01*
X141732Y765048D01*
X141732Y713232D01*
X144780Y710184D01*
X149352Y710184D01*
X152400Y707136D01*
X158496Y707136D01*
X163068Y702564D01*
X163068Y676656D01*
X166116Y673608D01*
X176784Y673608D01*
X184404Y665988D01*
X184404Y656844D01*
X208788Y632460D01*
X304800Y632460D01*
D27*
X766572Y978408D03*
X304800Y632460D03*
D26*
X1132332Y922020D02*
X1155192Y922020D01*
X1155192Y946404D01*
X1152144Y949452D01*
X1226820Y911352D02*
X1229868Y908304D01*
X1246632Y908304D01*
X1246632Y809244D01*
X1272540Y809244D01*
X1304544Y777240D01*
X1304544Y469392D01*
X1228344Y393192D01*
X1162812Y393192D01*
X1124712Y355092D01*
X1124712Y284988D01*
X1104900Y265176D01*
X1065276Y265176D01*
X1028700Y228600D01*
X1028700Y204216D01*
X1027176Y202692D01*
X1011936Y202692D01*
X829056Y132588D02*
X826008Y135636D01*
X789432Y135636D01*
X742188Y88392D01*
X742188Y82296D01*
X739140Y79248D01*
X739140Y71628D01*
X728472Y60960D01*
X662940Y60960D01*
X649224Y74676D01*
X1131400Y922200D02*
X1132332Y922020D01*
X650600Y75800D02*
X649224Y74676D01*
D27*
X1152144Y949452D03*
X1226820Y911352D03*
X1011936Y202692D03*
X829056Y132588D03*
D26*
X1203960Y923544D02*
X1203960Y929640D01*
X1199388Y934212D01*
X1164336Y934212D01*
X1162812Y935736D01*
X1162812Y957072D01*
X1132332Y987552D01*
X801624Y987552D01*
X725424Y911352D01*
X720852Y911352D01*
X711708Y902208D01*
X711708Y830580D01*
X632460Y751332D01*
X518160Y751332D01*
X515112Y748284D01*
X515112Y676656D01*
X512064Y673608D01*
X512064Y669036D01*
X515112Y665988D01*
X515112Y656844D01*
X512064Y653796D01*
X512064Y638556D01*
X513588Y637032D01*
X513588Y440436D01*
X510540Y437388D01*
X510540Y227076D01*
X509016Y225552D01*
X509016Y220980D01*
X512064Y217932D01*
X512064Y210312D01*
X522732Y199644D01*
X522732Y196596D01*
X525780Y193548D01*
X531876Y193548D01*
X536448Y198120D01*
X536448Y202692D01*
X548640Y214884D01*
X1205200Y922200D02*
X1203960Y923544D01*
X549000Y214700D02*
X548640Y214884D01*
X1103376Y739140D02*
X1069848Y772668D01*
X1136904Y586740D02*
X1139952Y583692D01*
X1159764Y583692D01*
X1162812Y586740D01*
D27*
X1069848Y772668D03*
X1103376Y739140D03*
X1136904Y586740D03*
X1162812Y586740D03*
D26*
X1132332Y862584D02*
X1132332Y871728D01*
X1132332Y862584D02*
X1103376Y833628D01*
X1103376Y810768D01*
X1104900Y809244D01*
X1155192Y809244D01*
X1156716Y810768D01*
X1156716Y848868D01*
X1170432Y862584D01*
X1171956Y839724D02*
X1167384Y835152D01*
X1167384Y790956D01*
X1165860Y789432D01*
X1165860Y736092D01*
X1176528Y725424D01*
X1176528Y719328D01*
X1203960Y691896D01*
X1210056Y691896D01*
X1213104Y694944D01*
X1231392Y694944D01*
X1232916Y693420D01*
X1232916Y664464D01*
X1194816Y626364D01*
X1194816Y583692D01*
X1170432Y559308D01*
X1170432Y519684D01*
X1139952Y489204D01*
X1085088Y489204D01*
X1071372Y475488D01*
X1071372Y457200D01*
X1039368Y425196D01*
X1039368Y321564D01*
X1031748Y313944D01*
X1002792Y313944D01*
X1001268Y312420D01*
X998220Y312420D01*
X990600Y304800D01*
X990600Y275844D01*
X987552Y272796D01*
X938784Y272796D01*
X937260Y271272D01*
X937260Y175260D01*
X906780Y144780D01*
X784860Y144780D01*
X783336Y143256D01*
X559308Y143256D01*
X550164Y134112D01*
X550164Y76200D01*
X1132332Y871728D02*
X1132800Y872200D01*
X550164Y76200D02*
X549000Y75800D01*
D27*
X1170432Y862584D03*
X1171956Y839724D03*
D26*
X1205484Y864108D02*
X1205484Y871728D01*
X1205484Y864108D02*
X1200912Y859536D01*
X1181100Y859536D01*
X1165860Y844296D01*
X1165860Y838200D01*
X1164336Y836676D01*
X1164336Y792480D01*
X1162812Y790956D01*
X1162812Y734568D01*
X1173480Y723900D01*
X1173480Y711708D01*
X1156716Y694944D01*
X1147572Y694944D01*
X1144524Y691896D01*
X1143000Y691896D01*
X1136904Y685800D01*
X1136904Y652272D01*
X1121664Y637032D01*
X1121664Y580644D01*
X1118616Y577596D01*
X1118616Y519684D01*
X1117092Y518160D01*
X1086612Y518160D01*
X1068324Y499872D01*
X1068324Y458724D01*
X1034796Y425196D01*
X545592Y425196D01*
X533400Y437388D01*
X519684Y437388D01*
X515112Y432816D01*
X515112Y214884D01*
X522732Y214884D01*
X1205484Y871728D02*
X1206600Y872200D01*
X523600Y214700D02*
X522732Y214884D01*
X1107948Y630936D02*
X1112520Y630936D01*
X1114044Y629412D01*
X1114044Y594360D01*
X1104900Y585216D01*
X1010412Y585216D01*
X1008888Y586740D01*
X1008888Y621792D01*
X1018032Y630936D01*
X1018032Y667512D01*
X943356Y742188D01*
X926592Y742188D01*
X1106600Y631500D02*
X1107948Y630936D01*
X926592Y742188D02*
X926400Y743300D01*
X746760Y594360D02*
X743712Y597408D01*
X746760Y594360D02*
X746760Y553212D01*
X743712Y550164D01*
X743712Y518160D01*
X635508Y297180D02*
X577596Y239268D01*
D27*
X743712Y597408D03*
X743712Y518160D03*
X635508Y297180D03*
X577596Y239268D03*
D26*
X1184148Y582168D02*
X1184148Y630936D01*
X1184148Y582168D02*
X1182624Y580644D01*
X1130808Y580644D01*
X1124712Y574548D01*
X1074420Y569976D02*
X1069848Y574548D01*
X1022604Y574548D01*
X1021080Y573024D01*
X1018032Y573024D01*
X1016508Y574548D01*
X1005840Y574548D01*
X975360Y544068D01*
X946404Y515112D02*
X915924Y484632D01*
X915924Y463296D01*
X886968Y434340D01*
X1182800Y631500D02*
X1184148Y630936D01*
D27*
X1124712Y574548D03*
X1074420Y569976D03*
X975360Y544068D03*
X946404Y515112D03*
X886968Y434340D03*
D26*
X1112520Y569976D02*
X1112520Y576072D01*
X1112520Y569976D02*
X1114044Y568452D01*
X1114044Y550164D01*
X1072896Y509016D01*
X1071372Y509016D01*
X1046988Y484632D01*
X1046988Y469392D01*
X1056132Y460248D01*
X1075944Y448056D02*
X1078992Y451104D01*
X1075944Y448056D02*
X1075944Y382524D01*
X1071372Y377952D01*
X1070900Y377400D01*
X1179576Y124968D02*
X1168908Y114300D01*
X1130808Y114300D01*
X1127760Y111252D01*
X1066800Y111252D01*
X1065276Y112776D01*
X1065276Y199644D01*
X1080516Y214884D01*
X1179576Y124968D02*
X1180200Y125200D01*
X1080516Y214884D02*
X1080600Y216300D01*
X243840Y213360D02*
X243840Y117348D01*
X207264Y80772D01*
X207264Y70104D01*
X208788Y68580D01*
X208788Y53340D01*
X224028Y38100D01*
X534924Y38100D01*
X539496Y42672D01*
X539496Y50292D01*
X560832Y71628D01*
X560832Y80772D01*
X553212Y88392D01*
X553212Y132588D01*
X560832Y140208D01*
X784860Y140208D01*
X786384Y141732D01*
X1036320Y141732D01*
X1065276Y112776D01*
X244200Y214700D02*
X243840Y213360D01*
D27*
X1112520Y576072D03*
X1056132Y460248D03*
X1078992Y451104D03*
D26*
X1307592Y778764D02*
X1264920Y821436D01*
X1307592Y778764D02*
X1307592Y467868D01*
X1229868Y390144D01*
X1185672Y390144D01*
X1171956Y376428D01*
X1264920Y821436D02*
X1264200Y822200D01*
X1171956Y376428D02*
X1171800Y376300D01*
X1091184Y126492D02*
X1078992Y126492D01*
X1091184Y126492D02*
X1179576Y214884D01*
X1078992Y126492D02*
X1078600Y125200D01*
X1179576Y214884D02*
X1179000Y216300D01*
X1191768Y280416D02*
X1176528Y295656D01*
X1191768Y280416D02*
X1191768Y272796D01*
X1193292Y271272D01*
X1193292Y230124D01*
X1179576Y216408D01*
X1176528Y295656D02*
X1175400Y296300D01*
X1179576Y216408D02*
X1179000Y216300D01*
X268224Y214884D02*
X265176Y214884D01*
X246888Y233172D01*
X220980Y233172D01*
X205740Y217932D01*
X205740Y210312D01*
X138684Y143256D01*
X138684Y88392D01*
X129540Y79248D01*
X129540Y71628D01*
X128016Y70104D01*
X128016Y42672D01*
X126492Y41148D01*
X268224Y214884D02*
X269600Y214700D01*
X1171956Y356616D02*
X1171956Y374904D01*
X1171956Y356616D02*
X1185672Y342900D01*
X1185672Y306324D01*
X1176528Y297180D01*
X1171956Y374904D02*
X1171800Y376300D01*
X1176528Y297180D02*
X1175400Y296300D01*
D27*
X126492Y41148D03*
D26*
X1080516Y949452D02*
X1092708Y937260D01*
X1080516Y949452D02*
X1042416Y949452D01*
X1028700Y935736D01*
X963168Y935736D01*
X960120Y938784D01*
X1264920Y297180D02*
X1272540Y297180D01*
X1264920Y297180D02*
X1242060Y320040D01*
X1242060Y347472D01*
X1269492Y374904D01*
X1272540Y297180D02*
X1273800Y296300D01*
X1269492Y374904D02*
X1270200Y376300D01*
X294132Y213360D02*
X294132Y210312D01*
X283464Y199644D01*
X268224Y199644D01*
X256032Y211836D01*
X256032Y219456D01*
X245364Y230124D01*
X242316Y230124D01*
X231648Y219456D01*
X231648Y210312D01*
X240792Y201168D01*
X240792Y118872D01*
X213360Y91440D01*
X192024Y91440D01*
X181356Y80772D01*
X181356Y71628D01*
X220980Y32004D01*
X888492Y32004D01*
X966216Y109728D01*
X966216Y114300D01*
X976884Y124968D01*
X295000Y214700D02*
X294132Y213360D01*
X976884Y124968D02*
X977000Y125200D01*
D27*
X1092708Y937260D03*
X960120Y938784D03*
D26*
X1082040Y441960D02*
X1088136Y435864D01*
X1088136Y318516D01*
X1109472Y297180D01*
X1110400Y296300D01*
X1024128Y307848D02*
X1013460Y297180D01*
X1024128Y307848D02*
X1034796Y307848D01*
X1045464Y318516D01*
X1088136Y318516D01*
X1013460Y297180D02*
X1012000Y296300D01*
X143256Y74676D02*
X143256Y54864D01*
X143256Y74676D02*
X142600Y75800D01*
X1210056Y275844D02*
X1210056Y295656D01*
X1210056Y275844D02*
X1222248Y263652D01*
X1222248Y239268D01*
X1213104Y230124D01*
X1202436Y230124D01*
X1196340Y224028D01*
X1196340Y111252D01*
X1193292Y108204D01*
X1133856Y108204D01*
X1130808Y105156D01*
X1063752Y105156D01*
X1033272Y135636D01*
X972312Y135636D01*
X963168Y126492D01*
X963168Y111252D01*
X886968Y35052D01*
X804672Y35052D01*
X787908Y51816D01*
X1208800Y296300D02*
X1210056Y295656D01*
D27*
X1082040Y441960D03*
X143256Y54864D03*
X787908Y51816D03*
D26*
X201168Y56388D02*
X201168Y60960D01*
X201168Y56388D02*
X222504Y35052D01*
X762000Y35052D01*
X862584Y135636D01*
X902208Y135636D01*
X911352Y126492D01*
X912000Y125200D01*
D27*
X201168Y60960D03*
D26*
X938784Y376428D02*
X950976Y364236D01*
X993648Y364236D01*
X1005840Y376428D01*
X1005900Y377400D01*
X1188720Y292608D02*
X1188720Y288036D01*
X1194816Y281940D01*
X1194816Y274320D01*
X1196340Y272796D01*
X1196340Y236220D01*
X1197864Y234696D01*
X1197864Y230124D01*
X1193292Y225552D01*
X1193292Y112776D01*
X1191768Y111252D01*
X1132332Y111252D01*
X1129284Y108204D01*
X1065276Y108204D01*
X1034796Y138684D01*
X787908Y138684D01*
X725424Y76200D01*
X726800Y75800D01*
X893064Y376428D02*
X896112Y376428D01*
X893064Y376428D02*
X873252Y356616D01*
X763524Y356616D01*
X729996Y390144D01*
X725424Y390144D01*
X722376Y387096D01*
X722376Y301752D01*
X653796Y233172D01*
X528828Y233172D01*
X527304Y234696D01*
X527304Y428244D01*
X530352Y431292D01*
X463296Y173736D02*
X463296Y140208D01*
X466344Y137160D01*
X896112Y376428D02*
X897500Y377400D01*
D27*
X938784Y376428D03*
X1188720Y292608D03*
X530352Y431292D03*
X463296Y173736D03*
X466344Y137160D03*
D26*
X1092708Y710184D02*
X1103376Y710184D01*
X1092708Y710184D02*
X1086612Y704088D01*
X1068324Y548640D02*
X1068324Y510540D01*
X1043940Y486156D01*
X1043940Y458724D01*
X280416Y224028D02*
X272796Y231648D01*
X272796Y591312D01*
X318516Y637032D01*
X475488Y687324D02*
X499872Y687324D01*
X542544Y655320D02*
X752856Y445008D01*
X752856Y352044D02*
X757428Y352044D01*
X760476Y348996D01*
X893064Y348996D01*
X894588Y350520D01*
X911352Y350520D01*
X964692Y297180D01*
X967740Y297180D01*
X968600Y296300D01*
X970788Y216408D02*
X963168Y216408D01*
X940308Y239268D01*
X940308Y269748D01*
X989076Y269748D01*
X993648Y274320D01*
X993648Y303276D01*
X999744Y309372D01*
X1002792Y309372D01*
X1004316Y310896D01*
X1033272Y310896D01*
X1042416Y320040D01*
X1042416Y329184D01*
X1077468Y364236D01*
X1083564Y364236D01*
X1085088Y365760D01*
X1085088Y429768D01*
X1082040Y432816D01*
X972200Y216300D02*
X970788Y216408D01*
D27*
X1103376Y710184D03*
X1086612Y704088D03*
X1068324Y548640D03*
X1043940Y458724D03*
X280416Y224028D03*
X318516Y637032D03*
X475488Y687324D03*
X499872Y687324D03*
X542544Y655320D03*
X752856Y445008D03*
X752856Y352044D03*
X1082040Y432816D03*
D26*
X777240Y213360D02*
X740664Y176784D01*
X740664Y155448D01*
X733044Y147828D01*
X550164Y147828D01*
X545592Y143256D01*
X545592Y88392D01*
X536448Y79248D01*
X536448Y71628D01*
X537972Y70104D01*
X537972Y53340D01*
X536448Y51816D01*
X536448Y44196D01*
X534924Y42672D01*
X438912Y42672D01*
X408432Y73152D01*
X408432Y80772D01*
X400812Y88392D01*
X400812Y141732D01*
X397764Y144780D01*
X384048Y144780D01*
X382524Y146304D01*
X382524Y198120D01*
X385572Y201168D01*
X385572Y208788D01*
X384048Y210312D01*
X384048Y219456D01*
X385572Y220980D01*
X385572Y228600D01*
X382524Y231648D01*
X382524Y437388D01*
X387096Y441960D01*
X387096Y665988D01*
X385572Y667512D01*
X385572Y684276D01*
X387096Y685800D01*
X387096Y737616D01*
X384048Y740664D01*
X373380Y740664D01*
X367284Y734568D01*
X173736Y734568D01*
X156972Y751332D01*
X777600Y214700D02*
X777240Y213360D01*
X156972Y751332D02*
X155600Y752600D01*
X269748Y172212D02*
X269748Y76200D01*
X269748Y172212D02*
X306324Y208788D01*
X306324Y219456D01*
X304800Y220980D01*
X304800Y228600D01*
X307848Y231648D01*
X307848Y434340D01*
X324612Y451104D01*
X324612Y659892D01*
X269748Y76200D02*
X269600Y75800D01*
X324612Y659892D02*
X324400Y660900D01*
X219456Y74676D02*
X219456Y71628D01*
X230124Y60960D01*
X271272Y60960D01*
X281940Y71628D01*
X281940Y80772D01*
X272796Y89916D01*
X272796Y141732D01*
X300228Y141732D01*
X304800Y146304D01*
X355092Y146304D01*
X358140Y149352D01*
X358140Y199644D01*
X355092Y202692D01*
X355092Y207264D01*
X359664Y211836D01*
X359664Y219456D01*
X370332Y230124D01*
X377952Y230124D01*
X379476Y231648D01*
X379476Y438912D01*
X384048Y443484D01*
X384048Y661416D01*
X376428Y661416D01*
X218800Y75800D02*
X219456Y74676D01*
X375200Y660900D02*
X376428Y661416D01*
X438912Y76200D02*
X446532Y76200D01*
X438912Y76200D02*
X438912Y138684D01*
X429768Y147828D01*
X403860Y147828D01*
X402336Y149352D01*
X387096Y149352D01*
X387096Y188976D01*
X408432Y210312D01*
X408432Y219456D01*
X397764Y230124D01*
X388620Y230124D01*
X387096Y231648D01*
X387096Y431292D01*
X391668Y435864D01*
X391668Y661416D01*
X399288Y661416D01*
X446532Y76200D02*
X447400Y75800D01*
X400600Y660900D02*
X399288Y661416D01*
X1208532Y702564D02*
X1208532Y768096D01*
X1229868Y789432D01*
X1229868Y827532D01*
X1228344Y829056D01*
X1228344Y850392D01*
X1226820Y851916D01*
X1226820Y880872D01*
X1219200Y888492D01*
X1193292Y888492D01*
X1191768Y890016D01*
X1135380Y890016D01*
X1133856Y888492D01*
X1101852Y888492D01*
X1062228Y848868D01*
X990600Y848868D01*
X989076Y847344D01*
X900684Y847344D01*
X899160Y845820D01*
X865632Y845820D01*
X865632Y816864D01*
X882396Y800100D01*
X1207400Y702050D02*
X1208532Y702564D01*
X882600Y799500D02*
X882396Y800100D01*
M02*
