G04 EAGLE Gerber RS-274X export*
G75*
%MOMM*%
%FSLAX34Y34*%
%LPD*%
%INTop Copper*%
%IPPOS*%
%AMOC8*
5,1,8,0,0,1.08239X$1,22.5*%
G01*
%ADD10R,1.270000X1.270000*%
%ADD11C,1.270000*%
%ADD12R,1.524000X1.524000*%
%ADD13C,1.524000*%
%ADD14R,1.778000X1.778000*%
%ADD15C,1.778000*%
%ADD16P,1.814519X8X22.500000*%
%ADD17P,1.924489X8X112.500000*%
%ADD18R,1.879600X1.879600*%
%ADD19C,1.879600*%
%ADD20P,1.429621X8X22.500000*%
%ADD21P,1.429621X8X112.500000*%
%ADD22P,1.429621X8X202.500000*%
%ADD23C,1.168000*%
%ADD24C,1.498000*%
%ADD25R,1.498000X1.498000*%
%ADD26C,0.152400*%
%ADD27C,0.756400*%


D10*
X1005000Y529900D03*
D11*
X1030400Y529900D03*
X1055800Y529900D03*
X1081200Y529900D03*
X1106600Y529900D03*
X1132000Y529900D03*
X1157400Y529900D03*
X1182800Y529900D03*
X1182800Y631500D03*
X1157400Y631500D03*
X1132000Y631500D03*
X1106600Y631500D03*
X1081200Y631500D03*
X1055800Y631500D03*
X1030400Y631500D03*
X1005000Y631500D03*
D12*
X725100Y951300D03*
D13*
X725100Y925900D03*
X725100Y900500D03*
X725100Y875100D03*
X725100Y849700D03*
X725100Y824300D03*
X725100Y798900D03*
X725100Y773500D03*
X725100Y748100D03*
X801300Y748100D03*
X801300Y773500D03*
X801300Y798900D03*
X801300Y824300D03*
X801300Y849700D03*
X801300Y875100D03*
X801300Y900500D03*
X801300Y925900D03*
X801300Y951300D03*
D14*
X777600Y75800D03*
D15*
X752200Y75800D03*
X726800Y75800D03*
X701400Y75800D03*
X676000Y75800D03*
X650600Y75800D03*
X625200Y75800D03*
X599800Y75800D03*
X574400Y75800D03*
X549000Y75800D03*
X523600Y75800D03*
X498200Y75800D03*
X472800Y75800D03*
X447400Y75800D03*
X422000Y75800D03*
X396600Y75800D03*
X371200Y75800D03*
X345800Y75800D03*
X320400Y75800D03*
X295000Y75800D03*
X269600Y75800D03*
X244200Y75800D03*
X218800Y75800D03*
X193400Y75800D03*
X168000Y75800D03*
X142600Y75800D03*
X117200Y75800D03*
X91800Y75800D03*
D14*
X777600Y214700D03*
D15*
X752200Y214700D03*
X726800Y214700D03*
X701400Y214700D03*
X676000Y214700D03*
X650600Y214700D03*
X625200Y214700D03*
X599800Y214700D03*
X574400Y214700D03*
X549000Y214700D03*
X523600Y214700D03*
X498200Y214700D03*
X472800Y214700D03*
X447400Y214700D03*
X422000Y214700D03*
X396600Y214700D03*
X371200Y214700D03*
X345800Y214700D03*
X320400Y214700D03*
X295000Y214700D03*
X269600Y214700D03*
X244200Y214700D03*
X218800Y214700D03*
X193400Y214700D03*
X168000Y214700D03*
X142600Y214700D03*
X117200Y214700D03*
X91800Y214700D03*
D16*
X353700Y924400D03*
X353700Y949800D03*
X379100Y924400D03*
X379100Y949800D03*
X404500Y924400D03*
X404500Y949800D03*
X429900Y924400D03*
X429900Y949800D03*
X455300Y924400D03*
X455300Y949800D03*
X480700Y924400D03*
X480700Y949800D03*
X506100Y924400D03*
X506100Y949800D03*
X531500Y924400D03*
X531500Y949800D03*
X556900Y924400D03*
X556900Y949800D03*
X582300Y924400D03*
X582300Y949800D03*
X607700Y924400D03*
X607700Y949800D03*
X633100Y924400D03*
X633100Y949800D03*
X658500Y924400D03*
X658500Y949800D03*
X683900Y924400D03*
X683900Y949800D03*
D17*
X126700Y949500D03*
X152100Y949500D03*
X177500Y949500D03*
X202900Y949500D03*
X228300Y949500D03*
X253700Y949500D03*
X279100Y949500D03*
X304500Y949500D03*
D18*
X146600Y660900D03*
D19*
X172000Y660900D03*
X197400Y660900D03*
X222800Y660900D03*
X248200Y660900D03*
X273600Y660900D03*
X299000Y660900D03*
X324400Y660900D03*
X349800Y660900D03*
X375200Y660900D03*
X400600Y660900D03*
X426000Y660900D03*
X451400Y660900D03*
X476800Y660900D03*
X502200Y660900D03*
X527600Y660900D03*
D20*
X1263100Y473000D03*
X1288500Y473000D03*
X1211500Y473000D03*
X1236900Y473000D03*
X1159900Y473000D03*
X1185300Y473000D03*
X1108300Y473000D03*
X1133700Y473000D03*
X1056700Y473000D03*
X1082100Y473000D03*
X1005100Y473000D03*
X1030500Y473000D03*
X954100Y473800D03*
X979500Y473800D03*
X902500Y473800D03*
X927900Y473800D03*
D21*
X837500Y904400D03*
X837500Y960600D03*
X1015000Y823300D03*
X1015000Y879500D03*
X838800Y743300D03*
X838800Y799500D03*
X882600Y743300D03*
X882600Y799500D03*
X926400Y743300D03*
X926400Y799500D03*
X970200Y743300D03*
X970200Y799500D03*
X1014000Y743300D03*
X1014000Y799500D03*
D22*
X1113200Y918700D03*
X1057000Y918700D03*
X1187600Y922200D03*
X1131400Y922200D03*
X1261400Y922200D03*
X1205200Y922200D03*
X1115200Y872200D03*
X1059000Y872200D03*
D21*
X881300Y904400D03*
X881300Y960600D03*
D22*
X1189000Y872200D03*
X1132800Y872200D03*
X1262800Y872200D03*
X1206600Y872200D03*
X1116600Y822200D03*
X1060400Y822200D03*
X1190400Y822200D03*
X1134200Y822200D03*
X1264200Y822200D03*
X1208000Y822200D03*
X1188000Y762200D03*
X1131800Y762200D03*
D23*
X74500Y752600D03*
X99900Y778000D03*
X125300Y752600D03*
X155600Y752600D03*
X181000Y778000D03*
X206400Y752600D03*
D21*
X925100Y904400D03*
X925100Y960600D03*
X972200Y903300D03*
X972200Y959500D03*
X1016000Y903300D03*
X1016000Y959500D03*
X839800Y823300D03*
X839800Y879500D03*
X883600Y823300D03*
X883600Y879500D03*
X927400Y823300D03*
X927400Y879500D03*
X971200Y823300D03*
X971200Y879500D03*
D24*
X897500Y332400D03*
D25*
X897500Y377400D03*
D24*
X962500Y332400D03*
X962500Y377400D03*
X1015600Y171300D03*
D25*
X1015600Y216300D03*
D24*
X1080600Y171300D03*
X1080600Y216300D03*
X1114000Y171300D03*
D25*
X1114000Y216300D03*
D24*
X1179000Y171300D03*
X1179000Y216300D03*
X1212400Y171300D03*
D25*
X1212400Y216300D03*
D24*
X1277400Y171300D03*
X1277400Y216300D03*
X1216800Y80200D03*
D25*
X1216800Y125200D03*
D24*
X1281800Y80200D03*
X1281800Y125200D03*
X1115200Y80200D03*
D25*
X1115200Y125200D03*
D24*
X1180200Y80200D03*
X1180200Y125200D03*
X1013600Y80200D03*
D25*
X1013600Y125200D03*
D24*
X1078600Y80200D03*
X1078600Y125200D03*
X912000Y80200D03*
D25*
X912000Y125200D03*
D24*
X977000Y80200D03*
X977000Y125200D03*
X1005900Y332400D03*
D25*
X1005900Y377400D03*
D24*
X1070900Y332400D03*
X1070900Y377400D03*
X1106800Y331300D03*
D25*
X1106800Y376300D03*
D24*
X1171800Y331300D03*
X1171800Y376300D03*
X1205200Y331300D03*
D25*
X1205200Y376300D03*
D24*
X1270200Y331300D03*
X1270200Y376300D03*
X903600Y251300D03*
D25*
X903600Y296300D03*
D24*
X968600Y251300D03*
X968600Y296300D03*
X1012000Y251300D03*
D25*
X1012000Y296300D03*
D24*
X1077000Y251300D03*
X1077000Y296300D03*
X1110400Y251300D03*
D25*
X1110400Y296300D03*
D24*
X1175400Y251300D03*
X1175400Y296300D03*
X1208800Y251300D03*
D25*
X1208800Y296300D03*
D24*
X1273800Y251300D03*
X1273800Y296300D03*
X907200Y171300D03*
D25*
X907200Y216300D03*
D24*
X972200Y171300D03*
X972200Y216300D03*
D20*
X975100Y679500D03*
X962400Y698550D03*
X949700Y679500D03*
X1064100Y683000D03*
X1051400Y702050D03*
X1038700Y683000D03*
X1147100Y683000D03*
X1134400Y702050D03*
X1121700Y683000D03*
X1220100Y683000D03*
X1207400Y702050D03*
X1194700Y683000D03*
X306700Y835300D03*
X332100Y809900D03*
X332100Y835300D03*
D26*
X942834Y864066D02*
X947776Y856050D01*
X947776Y817754D01*
X946776Y805046D02*
X946776Y718672D01*
X947504Y812202D02*
X947776Y817754D01*
X946776Y718672D02*
X946540Y718039D01*
X852012Y629363D02*
X843812Y612394D01*
X946776Y805046D02*
X947254Y811799D01*
X927790Y704490D02*
X925986Y703754D01*
X928047Y704593D02*
X946540Y718039D01*
X925202Y703434D02*
X912832Y698929D01*
X843514Y611866D02*
X847074Y594972D01*
X887490Y674625D02*
X893273Y680654D01*
X886669Y673796D02*
X875411Y661990D01*
X897342Y684951D02*
X909184Y697611D01*
X874515Y661047D02*
X856915Y637700D01*
X942834Y864066D02*
X927400Y879500D01*
X927900Y553210D02*
X927900Y473800D01*
X915200Y569787D02*
X908863Y580387D01*
X902500Y581805D01*
X915200Y569787D02*
X927900Y553210D01*
X902500Y581805D02*
X861886Y591686D01*
X847074Y594972D01*
X947254Y811799D02*
X947504Y812202D01*
X843812Y612394D02*
X843514Y611866D01*
X927790Y704490D02*
X928047Y704593D01*
X925986Y703754D02*
X925202Y703434D01*
X912832Y698929D02*
X909184Y697611D01*
X856915Y637700D02*
X852012Y629363D01*
X893273Y680654D02*
X897342Y684951D01*
X887490Y674625D02*
X886669Y673796D01*
X875411Y661990D02*
X874515Y661047D01*
X992962Y670342D02*
X1013343Y657455D01*
X992962Y670342D02*
X1002344Y679724D01*
X1001034Y702453D02*
X1001778Y703196D01*
X1002257Y684209D02*
X1002317Y682459D01*
X1014652Y597242D02*
X1007023Y551569D01*
X1001778Y703196D02*
X999359Y704647D01*
X1013343Y657455D02*
X1014652Y651713D01*
X1014652Y597242D01*
X1016220Y542372D02*
X1015904Y539898D01*
X1016220Y542372D02*
X1007023Y551569D01*
X1015904Y519902D02*
X1016220Y517428D01*
X1007081Y508289D02*
X1007691Y501577D01*
X1007081Y508289D02*
X1016220Y517428D01*
X1014652Y527048D02*
X1014652Y532752D01*
X996856Y706223D02*
X986874Y715692D01*
X986953Y853544D02*
X979746Y890944D01*
X979936Y716782D02*
X983228Y716205D01*
X983956Y852924D02*
X986953Y853544D01*
X983956Y852924D02*
X953872Y852924D01*
X968591Y719115D02*
X971326Y718675D01*
X953872Y825121D02*
X953872Y852924D01*
X952270Y731947D02*
X952270Y719726D01*
X952872Y733817D02*
X952872Y795046D01*
X952872Y733817D02*
X952270Y731947D01*
X951412Y806934D02*
X953872Y825121D01*
X946974Y892087D02*
X947612Y892406D01*
X951412Y806934D02*
X952872Y795046D01*
X943209Y891758D02*
X940754Y891604D01*
X936932Y891552D02*
X934821Y891363D01*
X927910Y890426D02*
X924739Y890426D01*
X917951Y889501D02*
X915840Y889312D01*
X915840Y883346D01*
X911709Y880411D01*
X911262Y881062D02*
X907051Y882801D01*
X900761Y879500D01*
X883600Y879500D01*
X992700Y487000D02*
X979500Y473800D01*
X1002257Y684209D02*
X1002212Y685498D01*
X1001034Y702453D01*
X1002328Y680185D02*
X1002344Y679724D01*
X1002328Y680185D02*
X1002328Y682156D01*
X1002317Y682459D01*
X998093Y705406D02*
X996856Y706223D01*
X998093Y705406D02*
X999359Y704647D01*
X1002365Y501577D02*
X1007691Y501577D01*
X1014652Y532752D02*
X1015260Y536902D01*
X1015724Y538488D01*
X1015904Y539898D01*
X1014652Y527048D02*
X1015260Y522898D01*
X1015724Y521312D01*
X1015904Y519902D01*
X998650Y501420D02*
X993133Y500954D01*
X998650Y501420D02*
X1002365Y501577D01*
X992700Y489269D02*
X992700Y487000D01*
X992700Y489269D02*
X993133Y500954D01*
X984921Y715908D02*
X983228Y716205D01*
X984921Y715908D02*
X986874Y715692D01*
X972631Y718466D02*
X971326Y718675D01*
X972631Y718466D02*
X978238Y717079D01*
X979936Y716782D01*
X974935Y891353D02*
X973935Y891400D01*
X974935Y891353D02*
X978818Y890986D01*
X979746Y890944D01*
X962669Y891900D02*
X958800Y891900D01*
X962669Y891900D02*
X964582Y891814D01*
X968465Y891447D01*
X969465Y891400D01*
X973935Y891400D01*
X954874Y891958D02*
X947643Y892352D01*
X954874Y891958D02*
X958800Y891900D01*
X947643Y892352D02*
X947612Y892406D01*
X945315Y891890D02*
X943209Y891758D01*
X945315Y891890D02*
X946974Y892087D01*
X937200Y891576D02*
X936932Y891552D01*
X937200Y891576D02*
X940316Y891576D01*
X940754Y891604D01*
X930358Y890667D02*
X927910Y890426D01*
X930358Y890667D02*
X933125Y891211D01*
X934821Y891363D01*
X919806Y889667D02*
X917951Y889501D01*
X919806Y889667D02*
X922587Y890214D01*
X924739Y890426D01*
X911262Y881062D02*
X911709Y880411D01*
X952270Y719726D02*
X960000Y719726D01*
X960000Y710000D01*
X968591Y718591D01*
X968591Y719115D01*
X1067733Y498805D02*
X1069400Y489212D01*
X1067508Y498903D02*
X1062628Y500163D01*
X1056250Y500053D02*
X1046680Y499918D01*
X1056475Y500053D02*
X1059678Y500108D01*
X1045151Y499895D02*
X1042721Y500122D01*
X1042596Y500179D02*
X1033962Y500066D01*
X1030450Y500053D02*
X1021256Y500054D01*
X1030475Y500053D02*
X1032234Y500059D01*
X1016017Y659371D02*
X1014542Y660303D01*
X1010074Y663128D02*
X1005874Y671294D01*
X1005005Y689280D02*
X1005012Y704837D01*
X1005303Y684315D02*
X1005364Y682565D01*
X1005390Y679829D02*
X1005451Y678079D01*
X1019702Y657041D02*
X1019560Y556652D01*
X1019560Y513770D02*
X1020408Y500054D01*
X1003345Y705811D02*
X999717Y707986D01*
X1019244Y541986D02*
X1018928Y539512D01*
X1019349Y542811D02*
X1019560Y556652D01*
X1018928Y520288D02*
X1019244Y517814D01*
X1019349Y516989D02*
X1019560Y514555D01*
X1017700Y527270D02*
X1017700Y532530D01*
X994624Y840166D02*
X994624Y881449D01*
X988786Y718546D02*
X993802Y714614D01*
X995503Y712583D02*
X999312Y708253D01*
X994624Y881449D02*
X993600Y891400D01*
X980462Y719784D02*
X983754Y719207D01*
X993956Y839876D02*
X994624Y840166D01*
X993956Y839876D02*
X956920Y839876D01*
X969074Y722124D02*
X971809Y721685D01*
X964009Y722735D02*
X961274Y723175D01*
X956920Y754622D02*
X956920Y839876D01*
X955920Y748309D02*
X955920Y734385D01*
X955920Y748309D02*
X956920Y754622D01*
X994100Y937600D02*
X1016000Y959500D01*
X1069400Y485700D02*
X1082100Y473000D01*
X1067733Y498805D02*
X1067508Y498903D01*
X1069400Y489212D02*
X1069400Y485700D01*
X1056475Y500053D02*
X1056250Y500053D01*
X1059678Y500108D02*
X1062628Y500163D01*
X1046680Y499918D02*
X1045151Y499895D01*
X1042721Y500122D02*
X1042596Y500179D01*
X1030475Y500053D02*
X1030450Y500053D01*
X1032234Y500059D02*
X1033962Y500066D01*
X1021256Y500054D02*
X1020408Y500054D01*
X1019702Y657041D02*
X1016017Y659371D01*
X1010074Y663128D02*
X1010073Y663129D01*
X1014542Y660303D01*
X1005303Y684315D02*
X1005256Y685656D01*
X1005005Y689280D01*
X1005376Y680238D02*
X1005390Y679829D01*
X1005376Y680238D02*
X1005376Y682209D01*
X1005364Y682565D01*
X1005451Y678079D02*
X1005499Y676685D01*
X1005874Y671294D01*
X1019560Y514555D02*
X1019560Y513770D01*
X1004554Y705086D02*
X1003345Y705811D01*
X1004554Y705086D02*
X1005012Y704837D01*
X999717Y707986D02*
X999312Y708253D01*
X1019349Y542811D02*
X1019244Y541986D01*
X1019244Y517814D02*
X1019349Y516989D01*
X1017700Y532530D02*
X1018245Y536250D01*
X1018717Y537863D01*
X1018928Y539512D01*
X1017700Y527270D02*
X1018245Y523550D01*
X1018717Y521937D01*
X1018928Y520288D01*
X995503Y712583D02*
X993802Y714614D01*
X993600Y891400D02*
X994100Y892207D01*
X994100Y937600D01*
X983754Y719207D02*
X985352Y718927D01*
X988786Y718546D01*
X973240Y721455D02*
X971809Y721685D01*
X973240Y721455D02*
X978868Y720064D01*
X980462Y719784D01*
X965313Y722526D02*
X964009Y722735D01*
X965313Y722526D02*
X967642Y722354D01*
X969074Y722124D01*
X961274Y723175D02*
X961274Y733061D01*
X955920Y734385D01*
X1290067Y948108D02*
X1288934Y950844D01*
X1295145Y925092D02*
X1295145Y919308D01*
X1297369Y875248D02*
X1297369Y869152D01*
X1292532Y848940D02*
X1293115Y847532D01*
X1298069Y825248D02*
X1298069Y819152D01*
X1293115Y796868D02*
X1291982Y794133D01*
X1267723Y759770D02*
X1262614Y754750D01*
X1274495Y685814D02*
X1274495Y680186D01*
X1265874Y639985D02*
X1264741Y637249D01*
X1292671Y847195D02*
X1292515Y848981D01*
X1290563Y897488D02*
X1292381Y897905D01*
X1253020Y554137D02*
X1253027Y541550D01*
X1261256Y751747D02*
X1260756Y752936D01*
X1261328Y751305D02*
X1261218Y751105D01*
X1249341Y589031D02*
X1248832Y572139D01*
X1287296Y954336D02*
X1272921Y964455D01*
X1264231Y965545D02*
X1258528Y965545D01*
X1259289Y626219D02*
X1253943Y609479D01*
X1238614Y526913D02*
X1231322Y519950D01*
X1239251Y527549D02*
X1242480Y530700D01*
X1266279Y725039D02*
X1264674Y740757D01*
X1252125Y540337D02*
X1244459Y532600D01*
X1245029Y963114D02*
X1221841Y964614D01*
X1208208Y967069D02*
X1202399Y967069D01*
X1213326Y507925D02*
X1212236Y506834D01*
X1210821Y506834D01*
X1208185Y505602D02*
X1205718Y504442D01*
X1190401Y967069D02*
X1184592Y967069D01*
X1193499Y966936D02*
X1199301Y966936D01*
X1170785Y500182D02*
X1173204Y499602D01*
X1170160Y500432D02*
X1161047Y500103D01*
X1158650Y500053D02*
X1148338Y499624D01*
X1158650Y500053D02*
X1160070Y500053D01*
X1170959Y964614D02*
X1148041Y964614D01*
X1134408Y967069D02*
X1128495Y967069D01*
X1147605Y499590D02*
X1146800Y491933D01*
X1111714Y965319D02*
X1124743Y966651D01*
X1096601Y962985D02*
X1073084Y959981D01*
X991395Y978695D02*
X972200Y959500D01*
X1146800Y486100D02*
X1133700Y473000D01*
X1288934Y950844D02*
X1288345Y952265D01*
X1287296Y954336D01*
X1290689Y946607D02*
X1295145Y925092D01*
X1290689Y946607D02*
X1290067Y948108D01*
X1290689Y897793D02*
X1290563Y897488D01*
X1290689Y897793D02*
X1295145Y919308D01*
X1292972Y896478D02*
X1297369Y875248D01*
X1292972Y896478D02*
X1292381Y897905D01*
X1292972Y847922D02*
X1292671Y847195D01*
X1292972Y847922D02*
X1297369Y869152D01*
X1292515Y848981D02*
X1292532Y848940D01*
X1293792Y845898D02*
X1298069Y825248D01*
X1293792Y845898D02*
X1293115Y847532D01*
X1293792Y798502D02*
X1293115Y796868D01*
X1293792Y798502D02*
X1298069Y819152D01*
X1269176Y761223D02*
X1267723Y759770D01*
X1269176Y761223D02*
X1282524Y776861D01*
X1291347Y792598D01*
X1291982Y794133D01*
X1262614Y754750D02*
X1260756Y752936D01*
X1261256Y751747D02*
X1261218Y751105D01*
X1261904Y749915D02*
X1264674Y740757D01*
X1261904Y749915D02*
X1261328Y751305D01*
X1272487Y705207D02*
X1274495Y685814D01*
X1272487Y705207D02*
X1266468Y724583D01*
X1266279Y725039D01*
X1266468Y641417D02*
X1265874Y639985D01*
X1266468Y641417D02*
X1272487Y660793D01*
X1274495Y680186D01*
X1264153Y635828D02*
X1259289Y626219D01*
X1264153Y635828D02*
X1264741Y637249D01*
X1252420Y599392D02*
X1249341Y589031D01*
X1252420Y599392D02*
X1253943Y609479D01*
X1248832Y572139D02*
X1253020Y554137D01*
X1253027Y541550D02*
X1252125Y540337D01*
X1272921Y964455D02*
X1264231Y965545D01*
X1239251Y527549D02*
X1238614Y526913D01*
X1242480Y530700D02*
X1244459Y532600D01*
X1245029Y963114D02*
X1258528Y965545D01*
X1231322Y519950D02*
X1225303Y514228D01*
X1221841Y964614D02*
X1208208Y967069D01*
X1213326Y507925D02*
X1213326Y507925D01*
X1225303Y514228D01*
X1202399Y967069D02*
X1199301Y966936D01*
X1209356Y506153D02*
X1208185Y505602D01*
X1209356Y506153D02*
X1209485Y506206D01*
X1210821Y506834D01*
X1204486Y503862D02*
X1198792Y500839D01*
X1204486Y503862D02*
X1205718Y504442D01*
X1193499Y966936D02*
X1190401Y967069D01*
X1198792Y500839D02*
X1173737Y499627D01*
X1170959Y964614D02*
X1184592Y967069D01*
X1173737Y499627D02*
X1173204Y499602D01*
X1170785Y500182D02*
X1170160Y500432D01*
X1161047Y500103D02*
X1160070Y500053D01*
X1148338Y499624D02*
X1147605Y499590D01*
X1148041Y964614D02*
X1134408Y967069D01*
X1146800Y491933D02*
X1146800Y486100D01*
X1124743Y966651D02*
X1128495Y967069D01*
X1110205Y965319D02*
X1096601Y962985D01*
X1110205Y965319D02*
X1111714Y965319D01*
X1059735Y962271D02*
X1059571Y962271D01*
X1059735Y962271D02*
X1073084Y959981D01*
X1037931Y977562D02*
X1035195Y978695D01*
X1037931Y977562D02*
X1048751Y971499D01*
X1059571Y962271D01*
X1032460Y979829D02*
X1018735Y982671D01*
X1032460Y979829D02*
X1035195Y978695D01*
X996805Y978695D02*
X994100Y977575D01*
X996805Y978695D02*
X999540Y979829D01*
X1013265Y982671D01*
X1018735Y982671D01*
X994100Y977575D02*
X991395Y978695D01*
X1197864Y486156D02*
X1210056Y473964D01*
X1197864Y486156D02*
X1173480Y486156D01*
X1161288Y473964D01*
X1210056Y473964D02*
X1211500Y473000D01*
X1161288Y473964D02*
X1159900Y473000D01*
X1249680Y486156D02*
X1261872Y473964D01*
X1249680Y486156D02*
X1223772Y486156D01*
X1211580Y473964D01*
X1261872Y473964D02*
X1263100Y473000D01*
X1211580Y473964D02*
X1211500Y473000D01*
X906780Y472440D02*
X903732Y472440D01*
X906780Y472440D02*
X917448Y461772D01*
X943356Y461772D01*
X954024Y472440D01*
X903732Y472440D02*
X902500Y473800D01*
X954024Y472440D02*
X954100Y473800D01*
X1001268Y472440D02*
X1004316Y472440D01*
X1001268Y472440D02*
X990600Y461772D01*
X966216Y461772D01*
X955548Y472440D01*
X1004316Y472440D02*
X1005100Y473000D01*
X955548Y472440D02*
X954100Y473800D01*
X1043940Y486156D02*
X1056132Y473964D01*
X1043940Y486156D02*
X1018032Y486156D01*
X1005840Y473964D01*
X1056132Y473964D02*
X1056700Y473000D01*
X1005840Y473964D02*
X1005100Y473000D01*
X650748Y220980D02*
X650748Y214884D01*
X650748Y220980D02*
X902208Y472440D01*
X650748Y214884D02*
X650600Y214700D01*
X902208Y472440D02*
X902500Y473800D01*
X1069848Y460248D02*
X1078992Y460248D01*
X1069848Y460248D02*
X1057656Y472440D01*
X1056700Y473000D01*
X1132332Y762000D02*
X1156716Y762000D01*
X1156716Y792480D01*
X1158240Y794004D01*
X1158240Y822960D01*
X1135380Y822960D01*
X1131800Y762200D02*
X1132332Y762000D01*
X1134200Y822200D02*
X1135380Y822960D01*
X344424Y826008D02*
X344424Y829056D01*
X344424Y826008D02*
X512064Y826008D01*
X513588Y824484D01*
X513588Y794004D01*
X550164Y757428D01*
X711708Y757428D01*
X711708Y736092D01*
X713232Y734568D01*
X737616Y734568D01*
X739140Y736092D01*
X739140Y755904D01*
X740664Y757428D01*
X755904Y757428D02*
X801624Y757428D01*
X755904Y757428D02*
X740664Y757428D01*
X801624Y757428D02*
X801624Y748284D01*
X801300Y748100D01*
X865632Y780288D02*
X868680Y780288D01*
X865632Y780288D02*
X861060Y775716D01*
X827532Y775716D01*
X819912Y768096D01*
X755904Y757428D02*
X755904Y754380D01*
D27*
X1078992Y460248D03*
X344424Y829056D03*
X868680Y780288D03*
X819912Y768096D03*
X755904Y754380D03*
D26*
X422148Y79248D02*
X422148Y76200D01*
X422148Y79248D02*
X434340Y91440D01*
X454152Y91440D01*
X422148Y76200D02*
X422000Y75800D01*
X528828Y199644D02*
X530352Y199644D01*
X531876Y198120D01*
X531876Y149352D01*
X422148Y149352D01*
X422148Y213360D01*
X422000Y214700D01*
X1068324Y542544D02*
X1080516Y530352D01*
X1068324Y542544D02*
X1036320Y542544D01*
X1034796Y544068D01*
X1034796Y577596D01*
X1045464Y577596D01*
X1046988Y579120D01*
X1046988Y618744D01*
X1056132Y618744D01*
X1065276Y627888D01*
X1065276Y635508D01*
X1059180Y641604D01*
X1059180Y659892D01*
X1054608Y664464D01*
X1054608Y682752D01*
X1063752Y682752D01*
X1080516Y530352D02*
X1081200Y529900D01*
X1063752Y682752D02*
X1064100Y683000D01*
X1123188Y518160D02*
X1127760Y518160D01*
X1123188Y518160D02*
X1118616Y522732D01*
X1118616Y541020D01*
X1117092Y542544D01*
X1094232Y542544D01*
X1082040Y530352D01*
X1081200Y529900D01*
X193548Y213360D02*
X193548Y76200D01*
X193400Y75800D01*
X193548Y213360D02*
X193400Y214700D01*
X185928Y752856D02*
X205740Y752856D01*
X160020Y778764D02*
X140208Y798576D01*
X160020Y778764D02*
X185928Y752856D01*
X140208Y798576D02*
X123444Y781812D01*
X108204Y781812D01*
X100584Y789432D01*
X89916Y789432D01*
X88392Y787908D01*
X88392Y768096D01*
X103632Y752856D01*
X124968Y752856D01*
X205740Y752856D02*
X206400Y752600D01*
X125300Y752600D02*
X124968Y752856D01*
X233172Y835152D02*
X306324Y835152D01*
X233172Y835152D02*
X187452Y789432D01*
X170688Y789432D01*
X160020Y778764D01*
X306324Y835152D02*
X306700Y835300D01*
X193548Y217932D02*
X193548Y214884D01*
X193548Y217932D02*
X205740Y230124D01*
X301752Y230124D01*
X303276Y231648D01*
X303276Y428244D01*
X295656Y435864D01*
X295656Y647700D01*
X286512Y656844D01*
X286512Y665988D01*
X275844Y676656D01*
X259080Y676656D01*
X248412Y665988D01*
X248412Y661416D01*
X193548Y214884D02*
X193400Y214700D01*
X248200Y660900D02*
X248412Y661416D01*
X527304Y661416D02*
X527304Y665988D01*
X516636Y676656D01*
X507492Y676656D01*
X505968Y678180D01*
X505968Y754380D02*
X505968Y794004D01*
X505968Y754380D02*
X505968Y678180D01*
X505968Y794004D02*
X477012Y822960D01*
X448056Y822960D01*
X445008Y819912D01*
X527304Y661416D02*
X527600Y660900D01*
X909828Y714756D02*
X918972Y714756D01*
X909828Y714756D02*
X908304Y716280D01*
X908304Y775716D01*
X918972Y786384D01*
X926592Y786384D01*
X937260Y797052D01*
X937260Y801624D01*
X929640Y809244D01*
X923544Y809244D01*
X914400Y800100D01*
X914400Y792480D01*
X900684Y778764D01*
X900684Y737616D01*
X893064Y729996D01*
X871728Y729996D01*
X870204Y731520D01*
X870204Y751332D01*
X856488Y765048D01*
X856488Y768096D01*
X836676Y768096D01*
X803148Y734568D01*
X742188Y734568D01*
X739140Y731520D01*
X711708Y731520D01*
X688848Y754380D01*
X505968Y754380D01*
X422148Y217932D02*
X422148Y214884D01*
X422148Y217932D02*
X434340Y230124D01*
X504444Y230124D01*
X422148Y214884D02*
X422000Y214700D01*
D27*
X454152Y91440D03*
X528828Y199644D03*
X1127760Y518160D03*
X445008Y819912D03*
X918972Y714756D03*
X504444Y230124D03*
D26*
X814000Y938600D02*
X801300Y951300D01*
X837500Y932500D02*
X837500Y904400D01*
X837500Y932500D02*
X830552Y932500D01*
X824666Y938600D01*
X814000Y938600D01*
X917494Y896794D02*
X925100Y904400D01*
X917494Y896794D02*
X917494Y896794D01*
X883961Y893474D02*
X880790Y893474D01*
X873879Y892537D02*
X871768Y892348D01*
X867945Y892296D02*
X865491Y892142D01*
X865491Y895246D01*
X860135Y895246D01*
X855418Y894800D02*
X852963Y894646D01*
X849060Y894588D02*
X846949Y894399D01*
X840161Y893474D02*
X836990Y893474D01*
X830079Y892537D02*
X827968Y892348D01*
X824188Y892307D02*
X823281Y892307D01*
X823243Y892269D01*
X822678Y892246D02*
X818357Y889324D01*
X816910Y889324D01*
X815455Y889324D02*
X807534Y894266D01*
X801300Y900500D01*
X883961Y893474D02*
X886113Y893686D01*
X888894Y894233D01*
X917494Y896794D01*
X875575Y892689D02*
X873879Y892537D01*
X875575Y892689D02*
X878342Y893233D01*
X880790Y893474D01*
X868384Y892324D02*
X867945Y892296D01*
X868384Y892324D02*
X871500Y892324D01*
X871768Y892348D01*
X857440Y894927D02*
X855418Y894800D01*
X857440Y894927D02*
X860135Y895246D01*
X849463Y894624D02*
X849060Y894588D01*
X849463Y894624D02*
X852621Y894624D01*
X852963Y894646D01*
X842313Y893686D02*
X840161Y893474D01*
X842313Y893686D02*
X845094Y894233D01*
X846949Y894399D01*
X831775Y892689D02*
X830079Y892537D01*
X831775Y892689D02*
X834542Y893233D01*
X836990Y893474D01*
X823243Y892269D02*
X822678Y892246D01*
X824188Y892307D02*
X824601Y892324D01*
X827700Y892324D01*
X827968Y892348D01*
X818357Y889324D02*
X818357Y889324D01*
X816910Y889324D02*
X815455Y889324D01*
X940563Y894646D02*
X943018Y894800D01*
X936660Y894588D02*
X934549Y894399D01*
X927761Y893474D02*
X924590Y893474D01*
X917679Y892537D02*
X915568Y892348D01*
X893132Y891552D02*
X891021Y891363D01*
X884110Y890426D02*
X880939Y890426D01*
X874151Y889501D02*
X872040Y889312D01*
X868137Y889254D02*
X865682Y889100D01*
X862790Y888870D02*
X859236Y891124D01*
X858668Y892003D01*
X855609Y891758D02*
X853154Y891604D01*
X849332Y891552D02*
X847221Y891363D01*
X840310Y890426D02*
X837139Y890426D01*
X830351Y889501D02*
X828240Y889312D01*
X810150Y875100D02*
X801300Y875100D01*
X951518Y903300D02*
X972200Y903300D01*
X951518Y903300D02*
X943018Y894800D01*
X937063Y894624D02*
X936660Y894588D01*
X937063Y894624D02*
X940221Y894624D01*
X940563Y894646D01*
X929913Y893686D02*
X927761Y893474D01*
X929913Y893686D02*
X932694Y894233D01*
X934549Y894399D01*
X919375Y892689D02*
X917679Y892537D01*
X919375Y892689D02*
X922142Y893233D01*
X924590Y893474D01*
X915300Y892324D02*
X912184Y892324D01*
X915300Y892324D02*
X915568Y892348D01*
X893400Y891576D02*
X893132Y891552D01*
X893400Y891576D02*
X900291Y891576D01*
X912184Y892324D01*
X886558Y890667D02*
X884110Y890426D01*
X886558Y890667D02*
X889325Y891211D01*
X891021Y891363D01*
X876006Y889667D02*
X874151Y889501D01*
X876006Y889667D02*
X878787Y890214D01*
X880939Y890426D01*
X868479Y889276D02*
X868137Y889254D01*
X868479Y889276D02*
X871637Y889276D01*
X872040Y889312D01*
X863660Y888973D02*
X862790Y888870D01*
X863660Y888973D02*
X865682Y889100D01*
X857715Y891890D02*
X855609Y891758D01*
X857715Y891890D02*
X858668Y892003D01*
X849600Y891576D02*
X849332Y891552D01*
X849600Y891576D02*
X852716Y891576D01*
X853154Y891604D01*
X842758Y890667D02*
X840310Y890426D01*
X842758Y890667D02*
X845525Y891211D01*
X847221Y891363D01*
X832206Y889667D02*
X830351Y889501D01*
X832206Y889667D02*
X834987Y890214D01*
X837139Y890426D01*
X823981Y888931D02*
X810150Y875100D01*
X823981Y888931D02*
X823981Y888931D01*
X828240Y889312D01*
X821058Y823300D02*
X839800Y823300D01*
X821058Y824300D02*
X801300Y824300D01*
X821058Y824300D02*
X821058Y823300D01*
X868259Y813453D02*
X871200Y813424D01*
X881076Y823300D02*
X883600Y823300D01*
X881076Y823300D02*
X871200Y813424D01*
X867091Y814621D02*
X860563Y812424D01*
X848366Y812424D01*
X841571Y812924D02*
X837101Y812924D01*
X827400Y813424D02*
X824459Y813453D01*
X827400Y813424D02*
X830303Y813424D01*
X821043Y813562D02*
X817110Y811600D01*
X814000Y811600D02*
X801300Y798900D01*
X867091Y814621D02*
X868259Y813453D01*
X842643Y812873D02*
X841571Y812924D01*
X842643Y812873D02*
X846524Y812507D01*
X848366Y812424D01*
X832288Y813335D02*
X830303Y813424D01*
X832288Y813335D02*
X836172Y812968D01*
X837101Y812924D01*
X824459Y813453D02*
X824399Y813513D01*
X821043Y813562D01*
X817110Y811600D02*
X814000Y811600D01*
X868214Y810405D02*
X871200Y810376D01*
X891111Y810376D02*
X891626Y810923D01*
X841499Y809876D02*
X837029Y809876D01*
X827400Y810376D02*
X824414Y810405D01*
X827400Y810376D02*
X830234Y810376D01*
X824414Y810405D02*
X824414Y803356D01*
X820558Y799500D01*
X916000Y811900D02*
X927400Y823300D01*
X814000Y786200D02*
X801300Y773500D01*
X914000Y811900D02*
X916000Y811900D01*
X910074Y811958D02*
X905500Y812207D01*
X910074Y811958D02*
X914000Y811900D01*
X905500Y812207D02*
X904500Y810593D01*
X897869Y810900D02*
X892131Y810900D01*
X897869Y810900D02*
X904500Y810593D01*
X892131Y810900D02*
X891626Y810923D01*
X891111Y810376D02*
X871200Y810376D01*
X868214Y810405D02*
X868214Y808453D01*
X846312Y809466D01*
X842428Y809832D02*
X841499Y809876D01*
X842428Y809832D02*
X846312Y809466D01*
X832076Y810293D02*
X830234Y810376D01*
X832076Y810293D02*
X835957Y809927D01*
X837029Y809876D01*
X820558Y799500D02*
X820558Y796765D01*
X820999Y786200D01*
X814000Y786200D01*
X711708Y938784D02*
X723900Y950976D01*
X711708Y938784D02*
X711708Y920496D01*
X512064Y909828D02*
X510540Y909828D01*
X512064Y909828D02*
X513588Y908304D01*
X513588Y830580D01*
X512064Y829056D01*
X361188Y829056D01*
X336804Y853440D01*
X129540Y853440D01*
X723900Y950976D02*
X725100Y951300D01*
X470916Y426720D02*
X466344Y426720D01*
X470916Y426720D02*
X480060Y435864D01*
X480060Y633984D01*
X483108Y637032D01*
X499872Y637032D02*
X504444Y641604D01*
X542544Y641604D01*
X649224Y748284D01*
X685800Y748284D01*
X708660Y725424D01*
X722376Y725424D01*
X725424Y722376D01*
X752856Y804672D02*
X752856Y806196D01*
X752856Y804672D02*
X754380Y803148D01*
X758952Y803148D01*
X758952Y868680D01*
X757428Y870204D01*
X757428Y923544D01*
X729996Y950976D01*
X725424Y950976D01*
X725100Y951300D01*
D27*
X711708Y920496D03*
X510540Y909828D03*
X129540Y853440D03*
X466344Y426720D03*
X483108Y637032D03*
X499872Y637032D03*
X725424Y722376D03*
X752856Y806196D03*
D26*
X745236Y728472D02*
X710184Y728472D01*
X687324Y751332D01*
X647700Y751332D01*
X541020Y644652D01*
X495300Y644652D01*
X493776Y643128D01*
X493776Y448056D01*
X496824Y445008D01*
X176784Y944880D02*
X176784Y949452D01*
X176784Y944880D02*
X166116Y934212D01*
X132588Y934212D01*
X134112Y781812D02*
X134112Y777240D01*
X134112Y781812D02*
X140208Y787908D01*
X176784Y751332D01*
X176784Y711708D01*
X175260Y710184D01*
X175260Y685800D01*
X178308Y682752D01*
X352044Y152400D02*
X352044Y150876D01*
X353568Y149352D01*
X417576Y149352D01*
X419100Y150876D01*
X419100Y201168D01*
X409956Y210312D01*
X409956Y219456D01*
X420624Y230124D01*
X429768Y230124D01*
X432816Y233172D01*
X498348Y233172D01*
X501396Y236220D01*
X507492Y236220D01*
X510540Y233172D01*
X510540Y227076D01*
X498348Y214884D01*
X177500Y949500D02*
X176784Y949452D01*
X498348Y214884D02*
X498200Y214700D01*
D27*
X745236Y728472D03*
X496824Y445008D03*
X132588Y934212D03*
X134112Y777240D03*
X178308Y682752D03*
X352044Y152400D03*
D26*
X739140Y861060D02*
X725100Y875100D01*
X739140Y861060D02*
X739140Y848868D01*
X729996Y839724D01*
X720852Y839724D01*
X711708Y848868D01*
X711708Y858012D01*
X694944Y874776D01*
X694944Y961644D01*
X685800Y970788D01*
X541020Y970788D02*
X356616Y970788D01*
X541020Y970788D02*
X685800Y970788D01*
X356616Y970788D02*
X345948Y960120D01*
X344424Y960120D01*
X370332Y199644D02*
X376428Y199644D01*
X370332Y199644D02*
X358140Y211836D01*
X358140Y219456D01*
X352044Y225552D01*
X352044Y228600D01*
X355092Y445008D02*
X356616Y445008D01*
X355092Y445008D02*
X353568Y446532D01*
X353568Y647700D01*
X362712Y656844D01*
X362712Y665988D01*
X377952Y681228D01*
X483108Y681228D01*
X525780Y801624D02*
X527304Y801624D01*
X525780Y801624D02*
X524256Y803148D01*
X524256Y900684D01*
X542544Y918972D01*
X542544Y929640D01*
X541020Y931164D01*
X541020Y943356D01*
X542544Y944880D01*
X542544Y954024D01*
X541020Y955548D01*
X541020Y970788D01*
D27*
X344424Y960120D03*
X376428Y199644D03*
X352044Y228600D03*
X356616Y445008D03*
X483108Y681228D03*
X527304Y801624D03*
D26*
X697992Y876300D02*
X723900Y850392D01*
X697992Y883920D02*
X697992Y963168D01*
X697992Y883920D02*
X697992Y876300D01*
X697992Y963168D02*
X687324Y973836D01*
X350520Y973836D01*
X345948Y969264D01*
X723900Y850392D02*
X725100Y849700D01*
X371856Y80772D02*
X371856Y76200D01*
X371856Y80772D02*
X429768Y138684D01*
X454152Y138684D01*
X457200Y135636D01*
X454152Y155448D02*
X473964Y175260D01*
X525780Y175260D01*
X542544Y199644D02*
X550164Y199644D01*
X562356Y211836D01*
X562356Y219456D01*
X573024Y230124D01*
X594360Y230124D01*
X595884Y231648D01*
X595884Y431292D01*
X592836Y434340D01*
X655320Y434340D02*
X655320Y438912D01*
X746760Y530352D01*
X751332Y530352D01*
X746760Y678180D02*
X772668Y704088D01*
X772668Y766572D02*
X772668Y768096D01*
X772668Y766572D02*
X771144Y765048D01*
X748284Y765048D01*
X725424Y787908D01*
X720852Y787908D01*
X711708Y797052D01*
X711708Y826008D01*
X722376Y836676D01*
X731520Y836676D01*
X742188Y847344D01*
X742188Y873252D01*
X729996Y885444D01*
X720852Y885444D01*
X719328Y883920D01*
X697992Y883920D01*
X371856Y76200D02*
X371200Y75800D01*
D27*
X345948Y969264D03*
X457200Y135636D03*
X454152Y155448D03*
X525780Y175260D03*
X542544Y199644D03*
X592836Y434340D03*
X655320Y434340D03*
X751332Y530352D03*
X746760Y678180D03*
X772668Y704088D03*
X772668Y768096D03*
D26*
X725424Y824484D02*
X745236Y844296D01*
X745236Y874776D01*
X731520Y888492D01*
X722376Y888492D01*
X701040Y909828D01*
X701040Y964692D01*
X687324Y978408D01*
X309372Y978408D01*
X294132Y963168D01*
X294132Y955548D01*
X291084Y952500D01*
X291084Y944880D01*
X280416Y934212D01*
X265176Y934212D01*
X254508Y944880D01*
X254508Y949452D01*
X253700Y949500D01*
X574548Y213360D02*
X588264Y199644D01*
X626364Y199644D01*
X637032Y210312D01*
X637032Y219456D01*
X606552Y249936D01*
X606552Y394716D01*
X755904Y544068D01*
X742188Y807720D02*
X725424Y824484D01*
X574400Y214700D02*
X574548Y213360D01*
X725100Y824300D02*
X725424Y824484D01*
D27*
X755904Y544068D03*
X742188Y807720D03*
D26*
X758952Y798576D02*
X725424Y798576D01*
X758952Y798576D02*
X762000Y801624D01*
X762000Y839724D02*
X762000Y870204D01*
X762000Y839724D02*
X762000Y801624D01*
X762000Y870204D02*
X760476Y871728D01*
X760476Y932688D01*
X766572Y938784D01*
X766572Y944880D01*
X765048Y946404D01*
X765048Y966216D01*
X746760Y984504D01*
X691896Y984504D01*
X688848Y981456D01*
X307848Y981456D01*
X280416Y954024D01*
X280416Y950976D01*
X725100Y798900D02*
X725424Y798576D01*
X280416Y950976D02*
X279100Y949500D01*
X600456Y397764D02*
X600456Y214884D01*
X600456Y397764D02*
X746760Y544068D01*
X746760Y548640D01*
X780288Y582168D01*
X780288Y601980D01*
X886968Y708660D01*
X922020Y708660D01*
X931832Y718472D01*
X931832Y723044D01*
X943356Y734568D01*
X943356Y848868D01*
X938784Y853440D01*
X812292Y853440D01*
X804672Y861060D01*
X798576Y861060D01*
X781812Y844296D01*
X766572Y844296D01*
X762000Y839724D01*
X600456Y214884D02*
X599800Y214700D01*
X574548Y772668D02*
X723900Y772668D01*
X574548Y772668D02*
X571500Y775716D01*
X536448Y775716D01*
X516636Y795528D01*
X516636Y918972D01*
X518160Y920496D01*
X518160Y928116D01*
X516636Y929640D01*
X516636Y944880D01*
X518160Y946404D01*
X518160Y954024D01*
X504444Y967740D01*
X381000Y967740D01*
X365760Y952500D01*
X365760Y946404D01*
X358140Y938784D01*
X348996Y938784D01*
X338328Y949452D01*
X304800Y949452D01*
X723900Y772668D02*
X725100Y773500D01*
X304800Y949452D02*
X304500Y949500D01*
X624840Y217932D02*
X624840Y214884D01*
X624840Y217932D02*
X612648Y230124D01*
X605028Y230124D01*
X603504Y231648D01*
X603504Y396240D01*
X749808Y542544D01*
X749808Y547116D01*
X781812Y579120D01*
X810768Y579120D01*
X836676Y605028D01*
X781812Y768096D02*
X771144Y778764D01*
X743712Y778764D01*
X624840Y214884D02*
X625200Y214700D01*
D27*
X836676Y605028D03*
X781812Y768096D03*
X743712Y778764D03*
D26*
X1053084Y760476D02*
X1056132Y757428D01*
X1053084Y760476D02*
X1053084Y786384D01*
X1039368Y800100D01*
X1039368Y833628D01*
X1028700Y844296D01*
X1028700Y909828D01*
D27*
X1056132Y757428D03*
X1028700Y909828D03*
D26*
X1014984Y879348D02*
X1014984Y853440D01*
X1036320Y832104D01*
X1036320Y798576D01*
X1050036Y784860D01*
X1050036Y702564D01*
X1014984Y879348D02*
X1015000Y879500D01*
X1050036Y702564D02*
X1051400Y702050D01*
X970788Y813816D02*
X970788Y822960D01*
X970788Y813816D02*
X960120Y803148D01*
X960120Y766572D01*
X963168Y763524D01*
X931164Y688848D02*
X931164Y484632D01*
X940308Y475488D01*
X940308Y431292D02*
X940308Y384048D01*
X946404Y377952D01*
X946404Y359664D01*
X911352Y324612D01*
X911352Y320040D01*
X900684Y309372D01*
X891540Y309372D01*
X873252Y291084D01*
X873252Y286512D01*
X845820Y259080D01*
X845820Y240792D01*
X836676Y231648D01*
X836676Y213360D01*
X775716Y152400D01*
X574548Y152400D01*
X568452Y146304D01*
X568452Y143256D01*
X562356Y137160D01*
X562356Y117348D01*
X970788Y822960D02*
X971200Y823300D01*
D27*
X963168Y763524D03*
X931164Y688848D03*
X940308Y475488D03*
X940308Y431292D03*
X562356Y117348D03*
D26*
X652272Y586740D02*
X769620Y586740D01*
X652272Y586740D02*
X501396Y435864D01*
X484632Y435864D01*
X463296Y414528D01*
X516636Y91440D02*
X524256Y91440D01*
X536448Y79248D01*
X536448Y71628D01*
X547116Y60960D01*
X568452Y60960D01*
X571500Y57912D01*
X609600Y57912D01*
X626364Y74676D01*
X625200Y75800D01*
D27*
X769620Y586740D03*
X463296Y414528D03*
X516636Y91440D03*
D26*
X838200Y664464D02*
X838200Y742188D01*
X838200Y664464D02*
X765048Y591312D01*
X652272Y591312D01*
X499872Y438912D01*
X493776Y438912D01*
X490728Y441960D01*
X490728Y644652D01*
X493776Y647700D01*
X493776Y652272D01*
X489204Y656844D01*
X489204Y665988D01*
X486156Y669036D01*
X486156Y675132D01*
X489204Y678180D01*
X489204Y684276D01*
X480060Y693420D01*
X381000Y693420D01*
X367284Y679704D01*
X224028Y679704D01*
X210312Y665988D01*
X210312Y656844D01*
X207264Y653796D01*
X207264Y483108D01*
X211836Y478536D01*
X211836Y477012D01*
X243840Y445008D01*
X243840Y438912D01*
X239268Y434340D01*
X239268Y426720D01*
X140208Y327660D01*
X140208Y240792D01*
X117348Y217932D01*
X117348Y214884D01*
X838200Y742188D02*
X838800Y743300D01*
X117348Y214884D02*
X117200Y214700D01*
X859536Y766572D02*
X882396Y743712D01*
X859536Y766572D02*
X859536Y769620D01*
X858012Y771144D01*
X835152Y771144D01*
X815340Y751332D01*
X812292Y751332D01*
X803148Y760476D01*
X739140Y760476D01*
X736092Y757428D01*
X729996Y757428D01*
X723900Y763524D01*
X720852Y763524D01*
X714756Y769620D01*
X568452Y769620D01*
X502920Y835152D02*
X499872Y832104D01*
X362712Y832104D01*
X338328Y856488D01*
X135636Y856488D01*
X132588Y859536D01*
X126492Y859536D01*
X42672Y775716D01*
X42672Y263652D01*
X91440Y214884D01*
X882600Y743300D02*
X882396Y743712D01*
X91800Y214700D02*
X91440Y214884D01*
D27*
X568452Y769620D03*
X502920Y835152D03*
D26*
X995840Y539060D02*
X1005000Y529900D01*
X995840Y539060D02*
X995840Y627220D01*
X950976Y672084D01*
X950976Y678180D01*
X949700Y679500D01*
X1030224Y580644D02*
X1030224Y530352D01*
X1030224Y580644D02*
X1031748Y582168D01*
X1040892Y582168D01*
X1042416Y583692D01*
X1042416Y652272D01*
X1037844Y656844D01*
X1037844Y682752D01*
X1030224Y530352D02*
X1030400Y529900D01*
X1037844Y682752D02*
X1038700Y683000D01*
X1132332Y576072D02*
X1132332Y530352D01*
X1132332Y576072D02*
X1126236Y582168D01*
X1121664Y582168D01*
X1118616Y585216D01*
X1118616Y653796D01*
X1127760Y662940D01*
X1127760Y678180D01*
X1123188Y682752D01*
X1132332Y530352D02*
X1132000Y529900D01*
X1123188Y682752D02*
X1121700Y683000D01*
X1182624Y608076D02*
X1182624Y530352D01*
X1182624Y608076D02*
X1194816Y620268D01*
X1194816Y682752D01*
X1182624Y530352D02*
X1182800Y529900D01*
X1194816Y682752D02*
X1194700Y683000D01*
X1156716Y528828D02*
X1147572Y519684D01*
X1147572Y518160D01*
X1138428Y509016D01*
X1098804Y509016D01*
X1091184Y501396D01*
X1082040Y501396D01*
X1065276Y518160D01*
X1028700Y518160D01*
X1021080Y525780D01*
X1021080Y533400D01*
X1027176Y539496D01*
X1027176Y582168D01*
X1030224Y585216D01*
X1039368Y585216D01*
X1039368Y650748D01*
X1034796Y655320D01*
X1034796Y673608D01*
X1008888Y699516D01*
X1008888Y705612D01*
X970788Y743712D01*
X1157400Y529900D02*
X1156716Y528828D01*
X970788Y743712D02*
X970200Y743300D01*
X1132332Y632460D02*
X1141476Y641604D01*
X1141476Y644652D01*
X1164336Y667512D01*
X1168908Y667512D01*
X1179576Y678180D01*
X1179576Y746760D01*
X1159764Y766572D01*
X1159764Y790956D01*
X1161288Y792480D01*
X1161288Y896112D01*
X1159764Y897636D01*
X1153668Y897636D01*
X1152144Y896112D01*
X1115568Y896112D01*
X1112520Y899160D01*
X1112520Y917448D01*
X1132332Y632460D02*
X1132000Y631500D01*
X1112520Y917448D02*
X1113200Y918700D01*
X1107948Y528828D02*
X1124712Y512064D01*
X1136904Y512064D01*
X1144524Y519684D01*
X1144524Y530352D01*
X1135380Y539496D01*
X1135380Y576072D01*
X1144524Y585216D01*
X1144524Y643128D01*
X1165860Y664464D01*
X1170432Y664464D01*
X1182624Y676656D01*
X1182624Y725424D01*
X1235964Y778764D01*
X1235964Y845820D01*
X1234440Y847344D01*
X1234440Y873252D01*
X1213104Y894588D01*
X1208532Y894588D01*
X1188720Y914400D01*
X1188720Y922020D01*
X1106600Y529900D02*
X1107948Y528828D01*
X1187600Y922200D02*
X1188720Y922020D01*
X1059180Y528828D02*
X1056132Y528828D01*
X1059180Y528828D02*
X1080516Y507492D01*
X1088136Y507492D01*
X1100328Y495300D02*
X1100328Y489204D01*
X1095756Y484632D01*
X1095756Y461772D01*
X1103376Y454152D01*
X1277112Y795528D02*
X1277112Y906780D01*
X1261872Y922020D01*
X1055800Y529900D02*
X1056132Y528828D01*
X1261400Y922200D02*
X1261872Y922020D01*
D27*
X1088136Y507492D03*
X1100328Y495300D03*
X1103376Y454152D03*
X1277112Y795528D03*
D26*
X1080516Y659892D02*
X1080516Y632460D01*
X1080516Y659892D02*
X1094232Y673608D01*
X1094232Y714756D01*
X1095756Y716280D01*
X1095756Y725424D01*
X1091184Y729996D01*
X1091184Y847344D01*
X1115568Y871728D01*
X1080516Y632460D02*
X1081200Y631500D01*
X1115568Y871728D02*
X1115200Y872200D01*
X1054608Y632460D02*
X1048512Y632460D01*
X1046988Y633984D01*
X1046988Y667512D01*
X1051560Y672084D01*
X1051560Y682752D01*
X1039368Y694944D01*
X1039368Y704088D01*
X1046988Y711708D01*
X1046988Y783336D01*
X1033272Y797052D01*
X1033272Y830580D01*
X998220Y865632D01*
X998220Y909828D01*
X1004316Y915924D01*
X1034796Y915924D01*
X1045464Y905256D01*
X1068324Y905256D01*
X1086612Y923544D01*
X1086612Y940308D01*
X1107948Y961644D01*
X1126236Y961644D01*
X1127760Y963168D01*
X1138428Y963168D01*
X1141476Y960120D01*
X1181100Y960120D01*
X1184148Y963168D01*
X1210056Y963168D01*
X1217676Y955548D01*
X1229868Y955548D01*
X1232916Y952500D01*
X1232916Y902208D01*
X1234440Y902208D01*
X1249012Y887636D01*
X1249012Y871728D01*
X1261872Y871728D01*
X1055800Y631500D02*
X1054608Y632460D01*
X1261872Y871728D02*
X1262800Y872200D01*
X934212Y841248D02*
X929640Y845820D01*
X812292Y845820D01*
X806196Y839724D01*
X797052Y839724D01*
X795528Y841248D01*
X768096Y841248D01*
X766572Y839724D01*
X766572Y797052D01*
X765048Y795528D01*
X749808Y795528D01*
X746760Y792480D01*
X870204Y435864D02*
X874776Y435864D01*
X870204Y435864D02*
X701040Y266700D01*
X701040Y214884D01*
X701400Y214700D01*
D27*
X934212Y841248D03*
X746760Y792480D03*
X874776Y435864D03*
D26*
X957072Y356616D02*
X1033272Y432816D01*
X957072Y356616D02*
X952500Y356616D01*
X917448Y321564D01*
X917448Y284988D01*
X915924Y283464D01*
X874776Y283464D01*
X848868Y257556D01*
X848868Y239268D01*
X839724Y230124D01*
X839724Y211836D01*
X777240Y149352D01*
X576072Y149352D01*
X571500Y144780D01*
X571500Y137160D01*
X568452Y134112D01*
D27*
X1033272Y432816D03*
X568452Y134112D03*
D26*
X1056132Y918972D02*
X1056132Y943356D01*
X1027176Y972312D01*
X1004316Y972312D01*
X1002792Y970788D01*
X1002792Y950976D01*
X984504Y932688D01*
X957072Y932688D01*
X937260Y952500D01*
X937260Y972312D01*
X922020Y987552D01*
X775716Y987552D01*
X766572Y978408D01*
X304800Y632460D02*
X301752Y629412D01*
X301752Y438912D01*
X309372Y431292D01*
X309372Y225552D01*
X320040Y214884D01*
X1056132Y918972D02*
X1057000Y918700D01*
X320400Y214700D02*
X320040Y214884D01*
D27*
X766572Y978408D03*
X304800Y632460D03*
D26*
X1152144Y949452D02*
X1158240Y955548D01*
X1170432Y955548D01*
X1171956Y954024D01*
X1182624Y954024D01*
X1185672Y957072D01*
X1211580Y957072D01*
X1216152Y952500D01*
X1228344Y952500D01*
X1229868Y950976D01*
X1229868Y914400D01*
X1226820Y911352D01*
X1011936Y202692D02*
X1007364Y202692D01*
X1004316Y199644D01*
X896112Y199644D01*
X829056Y132588D01*
D27*
X1152144Y949452D03*
X1226820Y911352D03*
X1011936Y202692D03*
X829056Y132588D03*
D26*
X1059180Y873252D02*
X1082040Y873252D01*
X1083564Y871728D01*
X1083564Y792480D01*
X1069848Y778764D01*
X1069848Y772668D01*
X1103376Y739140D02*
X1103376Y731520D01*
X1104900Y729996D01*
X1104900Y717804D01*
X1127760Y694944D01*
X1127760Y690372D01*
X1130808Y687324D01*
X1130808Y661416D01*
X1127760Y658368D01*
X1127760Y640080D01*
X1123188Y635508D01*
X1123188Y585216D01*
X1135380Y585216D01*
X1136904Y586740D01*
X1162812Y586740D02*
X1164336Y586740D01*
X1165860Y585216D01*
X1165860Y579120D01*
X1168908Y576072D01*
X1170432Y577596D01*
X1179576Y577596D01*
X1179576Y539496D01*
X1170432Y530352D01*
X1170432Y515112D01*
X1159764Y504444D01*
X1147572Y504444D01*
X1143000Y499872D01*
X1143000Y487680D01*
X1141476Y486156D01*
X1123188Y486156D01*
X1121664Y484632D01*
X1121664Y461772D01*
X1086612Y426720D01*
X1040892Y426720D01*
X1037844Y423672D01*
X1033272Y423672D01*
X978408Y368808D01*
X978408Y310896D01*
X981456Y307848D01*
X981456Y284988D01*
X979932Y283464D01*
X920496Y283464D01*
X917448Y280416D01*
X876300Y280416D01*
X851916Y256032D01*
X851916Y237744D01*
X842772Y228600D01*
X842772Y198120D01*
X824484Y179832D01*
X824484Y149352D01*
X821436Y146304D01*
X577596Y146304D01*
X574548Y143256D01*
X574548Y76200D01*
X1059000Y872200D02*
X1059180Y873252D01*
X574548Y76200D02*
X574400Y75800D01*
D27*
X1069848Y772668D03*
X1103376Y739140D03*
X1136904Y586740D03*
X1162812Y586740D03*
D26*
X1167384Y859536D02*
X1170432Y862584D01*
X1167384Y859536D02*
X1167384Y850392D01*
X1168908Y848868D01*
X1168908Y842772D01*
X1171956Y839724D01*
D27*
X1170432Y862584D03*
X1171956Y839724D03*
D26*
X925068Y798576D02*
X903732Y777240D01*
X903732Y736092D01*
X894588Y726948D01*
X870204Y726948D01*
X867156Y729996D01*
X867156Y749808D01*
X851916Y765048D01*
X838200Y765048D01*
X826008Y752856D01*
X826008Y742188D01*
X835152Y733044D01*
X835152Y665988D01*
X763524Y594360D01*
X746760Y594360D01*
X743712Y597408D01*
X743712Y518160D02*
X739140Y518160D01*
X661416Y440436D01*
X661416Y431292D01*
X658368Y428244D01*
X644652Y428244D01*
X632460Y416052D01*
X632460Y300228D01*
X635508Y297180D01*
X577596Y239268D02*
X568452Y230124D01*
X547116Y230124D01*
X536448Y219456D01*
X536448Y210312D01*
X537972Y208788D01*
X537972Y204216D01*
X534924Y201168D01*
X534924Y147828D01*
X533400Y146304D01*
X348996Y146304D01*
X345948Y143256D01*
X345948Y76200D01*
X925068Y798576D02*
X926400Y799500D01*
X345948Y76200D02*
X345800Y75800D01*
D27*
X743712Y597408D03*
X743712Y518160D03*
X635508Y297180D03*
X577596Y239268D03*
D26*
X1120140Y574548D02*
X1124712Y574548D01*
X1120140Y574548D02*
X1115568Y569976D01*
X1074420Y569976D01*
X975360Y544068D02*
X946404Y515112D01*
X886968Y434340D02*
X882396Y434340D01*
X877824Y429768D01*
X868680Y429768D01*
X704088Y265176D01*
X704088Y240792D01*
X725424Y219456D01*
X725424Y214884D01*
X726800Y214700D01*
D27*
X1124712Y574548D03*
X1074420Y569976D03*
X975360Y544068D03*
X946404Y515112D03*
X886968Y434340D03*
D26*
X1165860Y822960D02*
X1190244Y822960D01*
X1165860Y822960D02*
X1165860Y847344D01*
X1164336Y848868D01*
X1164336Y897636D01*
X1144524Y917448D01*
X1144524Y932688D01*
X1143000Y934212D01*
X1104900Y934212D01*
X1100328Y929640D01*
X1100328Y906780D01*
X1114044Y893064D01*
X1153668Y893064D01*
X1155192Y894588D01*
X1156716Y894588D01*
X1156716Y871728D01*
X1144524Y859536D01*
X1107948Y859536D01*
X1094232Y845820D01*
X1094232Y731520D01*
X1098804Y726948D01*
X1098804Y714756D01*
X1097280Y713232D01*
X1097280Y673608D01*
X1115568Y655320D01*
X1115568Y579120D01*
X1112520Y576072D01*
X1065276Y460248D02*
X1056132Y460248D01*
X1065276Y460248D02*
X1068324Y457200D01*
X1072896Y457200D01*
X1078992Y451104D01*
X1190400Y822200D02*
X1190244Y822960D01*
X1077468Y295656D02*
X1077468Y277368D01*
X1091184Y263652D01*
X1091184Y225552D01*
X1082040Y216408D01*
X1077468Y295656D02*
X1077000Y296300D01*
X1082040Y216408D02*
X1080600Y216300D01*
X1069848Y376428D02*
X1066800Y376428D01*
X1042416Y352044D01*
X1042416Y330708D01*
X1075944Y297180D01*
X1069848Y376428D02*
X1070900Y377400D01*
X1075944Y297180D02*
X1077000Y296300D01*
D27*
X1112520Y576072D03*
X1056132Y460248D03*
X1078992Y451104D03*
D26*
X131064Y41148D02*
X126492Y41148D01*
X131064Y41148D02*
X134112Y38100D01*
X260604Y38100D01*
X266700Y32004D01*
X990600Y32004D01*
X1077468Y118872D01*
X1077468Y124968D01*
X1078600Y125200D01*
D27*
X126492Y41148D03*
D26*
X1188720Y763524D02*
X1216152Y763524D01*
X1232916Y780288D01*
X1232916Y844296D01*
X1231392Y845820D01*
X1231392Y871728D01*
X1211580Y891540D01*
X1191768Y891540D01*
X1190244Y893064D01*
X1173480Y893064D01*
X1147572Y918972D01*
X1147572Y934212D01*
X1144524Y937260D01*
X1092708Y937260D01*
X960120Y938784D02*
X960120Y970788D01*
X961644Y972312D01*
X979932Y972312D01*
X995172Y987552D01*
X1289304Y987552D01*
X1307592Y969264D01*
X1307592Y413004D01*
X1271016Y376428D01*
X1188000Y762200D02*
X1188720Y763524D01*
X1270200Y376300D02*
X1271016Y376428D01*
X989076Y126492D02*
X978408Y126492D01*
X989076Y126492D02*
X1001268Y138684D01*
X1022604Y138684D01*
X1025652Y141732D01*
X1208532Y141732D01*
X1277112Y210312D01*
X1277112Y214884D01*
X978408Y126492D02*
X977000Y125200D01*
X1277112Y214884D02*
X1277400Y216300D01*
X1274064Y277368D02*
X1274064Y295656D01*
X1274064Y277368D02*
X1287780Y263652D01*
X1287780Y225552D01*
X1278636Y216408D01*
X1274064Y295656D02*
X1273800Y296300D01*
X1278636Y216408D02*
X1277400Y216300D01*
D27*
X1092708Y937260D03*
X960120Y938784D03*
D26*
X914400Y307848D02*
X903732Y297180D01*
X914400Y307848D02*
X914400Y323088D01*
X949452Y358140D01*
X949452Y390144D01*
X950976Y391668D01*
X972312Y391668D01*
X1037844Y457200D01*
X1037844Y461772D01*
X1040892Y464820D01*
X1046988Y464820D01*
X1050036Y461772D01*
X1050036Y457200D01*
X1065276Y441960D01*
X1082040Y441960D01*
X903732Y297180D02*
X903600Y296300D01*
X1199388Y286512D02*
X1208532Y295656D01*
X1199388Y286512D02*
X1179576Y286512D01*
X1176528Y283464D01*
X1123188Y283464D01*
X1110996Y295656D01*
X1208532Y295656D02*
X1208800Y296300D01*
X1110996Y295656D02*
X1110400Y296300D01*
X153924Y44196D02*
X143256Y54864D01*
X153924Y44196D02*
X263652Y44196D01*
X269748Y38100D01*
X665988Y38100D01*
X702564Y74676D01*
X701400Y75800D01*
X784860Y48768D02*
X787908Y51816D01*
X784860Y48768D02*
X749808Y48768D01*
X739140Y38100D01*
X665988Y38100D01*
D27*
X1082040Y441960D03*
X143256Y54864D03*
X787908Y51816D03*
D26*
X908304Y214884D02*
X947928Y214884D01*
X960120Y202692D01*
X1002792Y202692D01*
X1014984Y214884D01*
X908304Y214884D02*
X907200Y216300D01*
X1014984Y214884D02*
X1015600Y216300D01*
X1091184Y193548D02*
X1103376Y205740D01*
X1112520Y214884D01*
X1091184Y193548D02*
X1048512Y193548D01*
X1046988Y192024D01*
X1040892Y192024D01*
X1016508Y216408D01*
X1112520Y214884D02*
X1114000Y216300D01*
X1016508Y216408D02*
X1015600Y216300D01*
X1190244Y193548D02*
X1211580Y214884D01*
X1190244Y193548D02*
X1149096Y193548D01*
X1146048Y190500D01*
X1139952Y190500D01*
X1124712Y205740D01*
X1103376Y205740D01*
X1211580Y214884D02*
X1212400Y216300D01*
X117348Y74676D02*
X117348Y59436D01*
X135636Y41148D01*
X262128Y41148D01*
X268224Y35052D01*
X740664Y35052D01*
X751332Y45720D01*
X790956Y45720D01*
X794004Y48768D01*
X794004Y140208D01*
X795528Y141732D01*
X833628Y141732D01*
X906780Y214884D01*
X117200Y75800D02*
X117348Y74676D01*
X906780Y214884D02*
X907200Y216300D01*
X912876Y124968D02*
X950976Y124968D01*
X964692Y111252D01*
X999744Y111252D01*
X1013460Y124968D01*
X912876Y124968D02*
X912000Y125200D01*
X1013460Y124968D02*
X1013600Y125200D01*
X1103376Y126492D02*
X1114044Y126492D01*
X1103376Y126492D02*
X1091184Y138684D01*
X1027176Y138684D01*
X1014984Y126492D01*
X1114044Y126492D02*
X1115200Y125200D01*
X1014984Y126492D02*
X1013600Y125200D01*
X1203960Y126492D02*
X1216152Y126492D01*
X1203960Y126492D02*
X1191768Y138684D01*
X1127760Y138684D01*
X1115568Y126492D01*
X1216152Y126492D02*
X1216800Y125200D01*
X1115568Y126492D02*
X1115200Y125200D01*
X100584Y76200D02*
X92964Y76200D01*
X100584Y76200D02*
X112776Y88392D01*
X121920Y88392D01*
X131064Y79248D01*
X131064Y70104D01*
X140208Y60960D01*
X144780Y60960D01*
X155448Y71628D01*
X155448Y79248D01*
X164592Y88392D01*
X172212Y88392D01*
X181356Y79248D01*
X181356Y71628D01*
X192024Y60960D01*
X201168Y60960D01*
X92964Y76200D02*
X91800Y75800D01*
D27*
X201168Y60960D03*
D26*
X897636Y376428D02*
X938784Y376428D01*
X897636Y376428D02*
X897500Y377400D01*
X1107948Y374904D02*
X1147572Y374904D01*
X1159764Y362712D01*
X1188720Y362712D02*
X1191768Y362712D01*
X1188720Y362712D02*
X1159764Y362712D01*
X1191768Y362712D02*
X1203960Y374904D01*
X1107948Y374904D02*
X1106800Y376300D01*
X1203960Y374904D02*
X1205200Y376300D01*
X169164Y74676D02*
X169164Y70104D01*
X190500Y48768D01*
X199644Y48768D01*
X201168Y50292D01*
X213360Y50292D01*
X214884Y48768D01*
X224028Y48768D01*
X225552Y50292D01*
X239268Y50292D01*
X240792Y48768D01*
X249936Y48768D01*
X259080Y57912D01*
X344424Y57912D01*
X358140Y71628D01*
X358140Y80772D01*
X348996Y89916D01*
X348996Y141732D01*
X466344Y141732D02*
X486156Y141732D01*
X466344Y141732D02*
X348996Y141732D01*
X486156Y141732D02*
X486156Y123444D01*
X502920Y106680D01*
X534924Y106680D01*
X562356Y79248D01*
X562356Y71628D01*
X573024Y60960D01*
X576072Y60960D01*
X586740Y71628D01*
X586740Y80772D01*
X577596Y89916D01*
X577596Y141732D01*
X726948Y141732D01*
X726948Y76200D01*
X169164Y74676D02*
X168000Y75800D01*
X726800Y75800D02*
X726948Y76200D01*
X1188720Y292608D02*
X1188720Y362712D01*
X530352Y429768D02*
X530352Y431292D01*
X530352Y429768D02*
X531876Y428244D01*
X531876Y239268D01*
X510540Y217932D01*
X510540Y210312D01*
X478536Y178308D01*
X472440Y178308D01*
X467868Y173736D01*
X463296Y173736D01*
X466344Y141732D02*
X466344Y137160D01*
D27*
X938784Y376428D03*
X1188720Y292608D03*
X530352Y431292D03*
X463296Y173736D03*
X466344Y137160D03*
D26*
X972312Y216408D02*
X989076Y216408D01*
X1002792Y230124D01*
X1027176Y230124D01*
X1028700Y228600D01*
X1028700Y208788D01*
X1042416Y195072D01*
X1045464Y195072D01*
X1048512Y198120D01*
X1091184Y198120D01*
X1094232Y201168D01*
X1094232Y260604D01*
X1114044Y280416D01*
X1178052Y280416D01*
X1181100Y283464D01*
X1235964Y283464D01*
X1261872Y309372D01*
X1286256Y309372D01*
X1307592Y288036D01*
X1307592Y150876D01*
X1283208Y126492D01*
X972312Y216408D02*
X972200Y216300D01*
X1281800Y125200D02*
X1283208Y126492D01*
X1097280Y803148D02*
X1115568Y821436D01*
X1097280Y803148D02*
X1097280Y733044D01*
X1101852Y728472D01*
X1101852Y711708D01*
X1103376Y710184D01*
X1088136Y704088D02*
X1086612Y704088D01*
X1088136Y704088D02*
X1089660Y702564D01*
X1089660Y673608D01*
X1077468Y661416D01*
X1077468Y652272D01*
X1068324Y643128D01*
X1068324Y548640D01*
X1030224Y445008D02*
X963168Y377952D01*
X1030224Y445008D02*
X1043940Y458724D01*
X1115568Y821436D02*
X1116600Y822200D01*
X963168Y377952D02*
X962500Y377400D01*
X969264Y313944D02*
X969264Y297180D01*
X969264Y313944D02*
X975360Y320040D01*
X975360Y370332D01*
X1031748Y426720D01*
X1036320Y426720D01*
X1039368Y429768D01*
X1039368Y435864D01*
X1030224Y445008D01*
X969264Y297180D02*
X968600Y296300D01*
X227076Y214884D02*
X219456Y214884D01*
X227076Y214884D02*
X239268Y227076D01*
X277368Y227076D01*
X280416Y224028D01*
X318516Y637032D02*
X336804Y655320D01*
X336804Y664464D01*
X348996Y676656D01*
X368808Y676656D01*
X376428Y684276D01*
X472440Y684276D01*
X475488Y687324D01*
X499872Y687324D02*
X502920Y684276D01*
X502920Y676656D01*
X505968Y673608D01*
X507492Y673608D01*
X515112Y665988D01*
X515112Y656844D01*
X524256Y647700D01*
X533400Y647700D01*
X541020Y655320D01*
X542544Y655320D01*
X752856Y445008D02*
X752856Y352044D01*
X219456Y214884D02*
X218800Y214700D01*
X1075944Y438912D02*
X1082040Y432816D01*
X1075944Y438912D02*
X1063752Y438912D01*
X1043940Y458724D01*
D27*
X1103376Y710184D03*
X1086612Y704088D03*
X1068324Y548640D03*
X1043940Y458724D03*
X280416Y224028D03*
X318516Y637032D03*
X475488Y687324D03*
X499872Y687324D03*
X542544Y655320D03*
X752856Y445008D03*
X752856Y352044D03*
X1082040Y432816D03*
D26*
X99060Y752856D02*
X74676Y752856D01*
X99060Y752856D02*
X102108Y749808D01*
X105156Y749808D01*
X114300Y740664D01*
X144780Y740664D01*
X155448Y751332D01*
X74676Y752856D02*
X74500Y752600D01*
X155448Y751332D02*
X155600Y752600D01*
X172212Y711708D02*
X172212Y661416D01*
X172212Y711708D02*
X173736Y713232D01*
X173736Y734568D01*
X156972Y751332D01*
X172212Y661416D02*
X172000Y660900D01*
X156972Y751332D02*
X155600Y752600D01*
X124968Y778764D02*
X100584Y778764D01*
X124968Y778764D02*
X137160Y790956D01*
X141732Y790956D01*
X179832Y752856D01*
X179832Y734568D01*
X205740Y708660D01*
X205740Y661416D01*
X198120Y661416D01*
X99900Y778000D02*
X100584Y778764D01*
X197400Y660900D02*
X198120Y661416D01*
X181356Y778764D02*
X234696Y832104D01*
X286512Y832104D01*
X295656Y822960D01*
X432816Y822960D01*
X460248Y795528D01*
X483108Y795528D01*
X493776Y784860D01*
X493776Y661416D01*
X501396Y661416D01*
X181356Y778764D02*
X181000Y778000D01*
X501396Y661416D02*
X502200Y660900D01*
X143256Y326136D02*
X143256Y214884D01*
X143256Y326136D02*
X242316Y425196D01*
X242316Y432816D01*
X246888Y437388D01*
X246888Y446532D01*
X214884Y478536D01*
X214884Y480060D01*
X213360Y481584D01*
X213360Y661416D01*
X222504Y661416D01*
X143256Y214884D02*
X142600Y214700D01*
X222800Y660900D02*
X222504Y661416D01*
X167640Y217932D02*
X167640Y214884D01*
X167640Y217932D02*
X155448Y230124D01*
X147828Y230124D01*
X146304Y231648D01*
X146304Y324612D01*
X245364Y423672D01*
X245364Y431292D01*
X249936Y435864D01*
X249936Y448056D01*
X227076Y470916D01*
X227076Y621792D01*
X265176Y659892D01*
X272796Y659892D01*
X167640Y214884D02*
X168000Y214700D01*
X272796Y659892D02*
X273600Y660900D01*
X295656Y143256D02*
X295656Y76200D01*
X295656Y143256D02*
X297180Y144780D01*
X298704Y144780D01*
X307848Y153924D01*
X307848Y199644D01*
X309372Y201168D01*
X309372Y208788D01*
X306324Y211836D01*
X306324Y219456D01*
X304800Y220980D01*
X304800Y228600D01*
X306324Y230124D01*
X306324Y429768D01*
X298704Y437388D01*
X298704Y659892D01*
X295656Y76200D02*
X295000Y75800D01*
X298704Y659892D02*
X299000Y660900D01*
X245364Y74676D02*
X245364Y71628D01*
X256032Y60960D01*
X297180Y60960D01*
X306324Y70104D01*
X306324Y80772D01*
X298704Y88392D01*
X298704Y141732D01*
X300228Y141732D01*
X310896Y152400D01*
X310896Y188976D01*
X332232Y210312D01*
X332232Y437388D01*
X350520Y455676D01*
X350520Y659892D01*
X244200Y75800D02*
X245364Y74676D01*
X350520Y659892D02*
X349800Y660900D01*
X344424Y214884D02*
X336804Y214884D01*
X336804Y359664D01*
X416052Y438912D01*
X423672Y438912D01*
X426720Y441960D01*
X426720Y659892D01*
X345800Y214700D02*
X344424Y214884D01*
X426720Y659892D02*
X426000Y660900D01*
X370332Y219456D02*
X370332Y214884D01*
X370332Y219456D02*
X355092Y234696D01*
X350520Y234696D01*
X348996Y236220D01*
X348996Y367284D01*
X417576Y435864D01*
X425196Y435864D01*
X429768Y440436D01*
X429768Y647700D01*
X441960Y659892D01*
X451104Y659892D01*
X370332Y214884D02*
X371200Y214700D01*
X451104Y659892D02*
X451400Y660900D01*
X396240Y217932D02*
X396240Y214884D01*
X396240Y217932D02*
X384048Y230124D01*
X376428Y230124D01*
X374904Y231648D01*
X374904Y388620D01*
X419100Y432816D01*
X448056Y432816D01*
X454152Y438912D01*
X454152Y445008D01*
X455676Y446532D01*
X455676Y647700D01*
X467868Y659892D01*
X475488Y659892D01*
X396240Y214884D02*
X396600Y214700D01*
X475488Y659892D02*
X476800Y660900D01*
M02*
